<svg width="294" height="88" viewBox="0 0 294 88" fill="none" xmlns="http://www.w3.org/2000/svg">
<g clip-path="url(#clip0_177_40462)">
<path d="M283.111 2.63089C285.537 2.63089 287.863 3.59456 289.579 5.30989C291.294 7.02522 292.258 9.35171 292.258 11.7776V77.1109C292.258 79.5367 291.294 81.8632 289.579 83.5786C287.863 85.2939 285.537 86.2576 283.111 86.2576H10.8889C8.46304 86.2576 6.13655 85.2939 4.42122 83.5786C2.70589 81.8632 1.74222 79.5367 1.74222 77.1109V11.7776C1.74222 9.35171 2.70589 7.02522 4.42122 5.30989C6.13655 3.59456 8.46304 2.63089 10.8889 2.63089H283.111ZM283.111 0.888672H10.8889C8.00098 0.888672 5.23134 2.03589 3.18928 4.07795C1.14722 6.12002 0 8.88965 0 11.7776V77.1109C0 79.9988 1.14722 82.7684 3.18928 84.8105C5.23134 86.8526 8.00098 87.9998 10.8889 87.9998H283.111C285.999 87.9998 288.769 86.8526 290.811 84.8105C292.853 82.7684 294 79.9988 294 77.1109V11.7776C294 8.88965 292.853 6.12002 290.811 4.07795C288.769 2.03589 285.999 0.888672 283.111 0.888672Z" fill="white"/>
<path d="M69.9347 42.9486C69.8746 36.2609 75.4107 33.0073 75.6638 32.8558C72.5285 28.2846 67.6688 27.66 65.9611 27.6102C61.8796 27.1807 57.9205 30.0525 55.8413 30.0525C53.7207 30.0525 50.519 27.6517 47.0682 27.7222C42.6277 27.7907 38.4736 30.3616 36.1952 34.3539C31.4933 42.4942 35 54.4566 39.5049 61.0364C41.7583 64.2589 44.3915 67.8569 47.8381 67.7303C51.2099 67.5913 52.4695 65.5806 56.5385 65.5806C60.5703 65.5806 61.753 67.7303 65.2681 67.6494C68.8869 67.5913 71.1652 64.4124 73.3398 61.1609C75.9439 57.4674 76.9897 53.8299 77.0312 53.6432C76.9462 53.6141 70.0032 50.9643 69.9347 42.9486Z" fill="white"/>
<path d="M63.2947 23.2815C65.1083 21.0136 66.3491 17.928 66.0047 14.7969C63.3798 14.9131 60.0972 16.6125 58.2068 18.8307C56.5344 20.7853 55.0404 23.9891 55.4263 27.002C58.3749 27.222 61.4023 25.5142 63.2947 23.2815Z" fill="white"/>
<path d="M118.732 67.2664H114.02L111.438 59.1553H102.466L100.007 67.2664H95.4194L104.309 39.6523H109.799L118.732 67.2664ZM110.66 55.7523L108.326 48.5416C108.079 47.805 107.616 46.0703 106.934 43.3396H106.851C106.579 44.5141 106.141 46.2488 105.539 48.5416L103.246 55.7523H110.66Z" fill="white"/>
<path d="M141.592 57.0661C141.592 60.4525 140.677 63.1292 138.846 65.0942C137.207 66.8435 135.172 67.717 132.742 67.717C130.119 67.717 128.235 66.775 127.087 64.8909H127.004V75.38H122.581V53.91C122.581 51.781 122.525 49.5961 122.417 47.3551H126.307L126.554 50.5111H126.637C128.113 48.1332 130.351 46.9463 133.356 46.9463C135.705 46.9463 137.666 47.8738 139.235 49.7309C140.807 51.5901 141.592 54.0345 141.592 57.0661ZM137.085 57.2279C137.085 55.2899 136.649 53.6921 135.773 52.4347C134.817 51.1233 133.532 50.4676 131.922 50.4676C130.831 50.4676 129.839 50.8328 128.953 51.5528C128.065 52.279 127.484 53.2273 127.212 54.4018C127.075 54.9496 127.007 55.3978 127.007 55.7505V59.0705C127.007 60.5189 127.451 61.741 128.339 62.7391C129.227 63.7372 130.38 64.2352 131.8 64.2352C133.466 64.2352 134.763 63.5919 135.69 62.3096C136.62 61.0252 137.085 59.332 137.085 57.2279Z" fill="white"/>
<path d="M164.494 57.0661C164.494 60.4525 163.579 63.1292 161.747 65.0942C160.11 66.8435 158.074 67.717 155.644 67.717C153.021 67.717 151.137 66.775 149.992 64.8909H149.909V75.38H145.485V53.91C145.485 51.781 145.429 49.5961 145.321 47.3551H149.212L149.459 50.5111H149.542C151.015 48.1332 153.254 46.9463 156.26 46.9463C158.607 46.9463 160.568 47.8738 162.141 49.7309C163.708 51.5901 164.494 54.0345 164.494 57.0661ZM159.987 57.2279C159.987 55.2899 159.549 53.6921 158.674 52.4347C157.717 51.1233 156.437 50.4676 154.825 50.4676C153.731 50.4676 152.741 50.8328 151.853 51.5528C150.965 52.279 150.386 53.2273 150.114 54.4018C149.979 54.9496 149.909 55.3978 149.909 55.7505V59.0705C149.909 60.5189 150.353 61.741 151.237 62.7391C152.125 63.7351 153.279 64.2352 154.702 64.2352C156.368 64.2352 157.665 63.5919 158.593 62.3096C159.522 61.0252 159.987 59.332 159.987 57.2279Z" fill="white"/>
<path d="M190.1 59.5229C190.1 61.8718 189.284 63.7828 187.647 65.2582C185.848 66.8704 183.343 67.6755 180.125 67.6755C177.154 67.6755 174.772 67.1028 172.968 65.9554L173.994 62.2681C175.936 63.4425 178.067 64.0318 180.389 64.0318C182.055 64.0318 183.352 63.6542 184.283 62.903C185.211 62.1519 185.674 61.1434 185.674 59.886C185.674 58.7655 185.292 57.8214 184.526 57.0557C183.765 56.29 182.493 55.5783 180.717 54.9205C175.882 53.1173 173.466 50.4759 173.466 47.0023C173.466 44.7323 174.313 42.871 176.008 41.4226C177.697 39.9722 179.951 39.248 182.769 39.248C185.282 39.248 187.369 39.6859 189.035 40.5594L187.929 44.1658C186.373 43.3192 184.613 42.8959 182.644 42.8959C181.088 42.8959 179.872 43.2798 179 44.0434C178.264 44.726 177.895 45.5581 177.895 46.5437C177.895 47.6352 178.316 48.5378 179.162 49.2475C179.899 49.9032 181.237 50.6128 183.18 51.3785C185.555 52.3351 187.3 53.4535 188.423 54.7358C189.541 56.014 190.1 57.6139 190.1 59.5229Z" fill="white"/>
<path d="M204.726 50.6749H199.85V60.3423C199.85 62.8012 200.709 64.0296 202.431 64.0296C203.222 64.0296 203.877 63.9611 204.396 63.8242L204.519 67.1836C203.647 67.5094 202.5 67.6733 201.078 67.6733C199.331 67.6733 197.966 67.14 196.98 66.0755C195.999 65.009 195.505 63.2203 195.505 60.7075V50.6707H192.6V47.3507H195.505V43.705L199.85 42.3936V47.3507H204.726V50.6749Z" fill="white"/>
<path d="M226.727 57.1469C226.727 60.2075 225.852 62.7203 224.105 64.6853C222.272 66.7085 219.84 67.7169 216.809 67.7169C213.887 67.7169 211.561 66.7479 209.827 64.8098C208.092 62.8718 207.224 60.4254 207.224 57.4768C207.224 54.3913 208.117 51.8639 209.907 49.8989C211.694 47.9318 214.105 46.9482 217.137 46.9482C220.058 46.9482 222.409 47.9173 224.183 49.8574C225.881 51.7394 226.727 54.1692 226.727 57.1469ZM222.138 57.29C222.138 55.4537 221.745 53.8787 220.951 52.5653C220.023 50.9758 218.697 50.1832 216.979 50.1832C215.201 50.1832 213.85 50.9779 212.922 52.5653C212.128 53.8808 211.736 55.4806 211.736 57.373C211.736 59.2094 212.128 60.7843 212.922 62.0957C213.879 63.6852 215.215 64.4778 216.94 64.4778C218.629 64.4778 219.955 63.6686 220.911 62.0542C221.727 60.7159 222.138 59.1243 222.138 57.29Z" fill="white"/>
<path d="M241.107 51.2457C240.669 51.1648 240.202 51.1233 239.712 51.1233C238.156 51.1233 236.953 51.7105 236.106 52.887C235.369 53.9245 235 55.2359 235 56.8191V67.2668H230.578L230.62 53.6257C230.62 51.3308 230.564 49.2412 230.454 47.3571H234.307L234.469 51.1668H234.591C235.058 49.8575 235.795 48.8034 236.803 48.0128C237.789 47.3011 238.853 46.9463 240.001 46.9463C240.41 46.9463 240.779 46.9753 241.107 47.0272V51.2457Z" fill="white"/>
<path d="M260.892 56.3691C260.892 57.1618 260.84 57.8299 260.73 58.3756H247.458C247.51 60.3427 248.152 61.8471 249.384 62.8846C250.502 63.8121 251.949 64.2769 253.725 64.2769C255.69 64.2769 257.483 63.9636 259.095 63.3349L259.788 66.4059C257.904 67.2276 255.68 67.6364 253.113 67.6364C250.025 67.6364 247.602 66.7275 245.838 64.9119C244.078 63.0963 243.196 60.6581 243.196 57.5996C243.196 54.5971 244.016 52.0967 245.657 50.1026C247.375 47.9737 249.697 46.9092 252.619 46.9092C255.489 46.9092 257.661 47.9737 259.137 50.1026C260.305 51.7937 260.892 53.8853 260.892 56.3691ZM256.674 55.2216C256.703 53.9102 256.414 52.7773 255.814 51.8207C255.049 50.5902 253.872 49.976 252.289 49.976C250.843 49.976 249.666 50.5757 248.768 51.7792C248.031 52.7358 247.593 53.8833 247.458 55.2196H256.674V55.2216Z" fill="white"/>
<path d="M109.198 22.6648C109.198 25.1071 108.466 26.9455 107.003 28.1801C105.648 29.3193 103.722 29.8899 101.228 29.8899C99.9913 29.8899 98.933 29.836 98.047 29.7281V16.3838C99.2028 16.197 100.448 16.1016 101.792 16.1016C104.168 16.1016 105.959 16.6182 107.167 17.6516C108.52 18.8198 109.198 20.4902 109.198 22.6648ZM106.905 22.725C106.905 21.1417 106.486 19.9279 105.648 19.0813C104.809 18.2367 103.585 17.8134 101.973 17.8134C101.288 17.8134 100.705 17.8591 100.222 17.9545V28.0992C100.489 28.1407 100.979 28.1594 101.691 28.1594C103.355 28.1594 104.639 27.6967 105.544 26.7712C106.449 25.8458 106.905 24.497 106.905 22.725Z" fill="white"/>
<path d="M121.356 24.7981C121.356 26.3025 120.926 27.535 120.067 28.502C119.166 29.4959 117.973 29.9918 116.483 29.9918C115.048 29.9918 113.904 29.5167 113.051 28.5622C112.201 27.6097 111.775 26.4083 111.775 24.96C111.775 23.4452 112.213 22.2023 113.093 21.2374C113.973 20.2725 115.155 19.7891 116.645 19.7891C118.081 19.7891 119.235 20.2642 120.108 21.2167C120.938 22.1421 121.356 23.3373 121.356 24.7981ZM119.1 24.8687C119.1 23.966 118.905 23.1921 118.517 22.5467C118.06 21.7665 117.411 21.3764 116.566 21.3764C115.693 21.3764 115.029 21.7665 114.572 22.5467C114.182 23.1921 113.989 23.9785 113.989 24.9081C113.989 25.8107 114.184 26.5847 114.572 27.23C115.043 28.0102 115.699 28.4003 116.546 28.4003C117.376 28.4003 118.027 28.004 118.496 27.2093C118.899 26.5515 119.1 25.7713 119.1 24.8687Z" fill="white"/>
<path d="M137.657 19.9883L134.596 29.7698H132.604L131.336 25.5223C131.015 24.462 130.753 23.4079 130.55 22.3621H130.511C130.322 23.4369 130.06 24.489 129.724 25.5223L128.377 29.7698H126.363L123.485 19.9883H125.719L126.825 24.6384C127.093 25.7381 127.313 26.786 127.489 27.7778H127.529C127.691 26.9603 127.958 25.9186 128.336 24.6591L129.724 19.9904H131.496L132.826 24.5595C133.148 25.6738 133.409 26.7466 133.611 27.7799H133.671C133.818 26.7735 134.04 25.7008 134.335 24.5595L135.522 19.9904H137.657V19.9883Z" fill="white"/>
<path d="M148.93 29.7692H146.756V24.1667C146.756 22.4403 146.1 21.5771 144.784 21.5771C144.139 21.5771 143.618 21.8137 143.213 22.2888C142.813 22.764 142.61 23.3243 142.61 23.9654V29.7671H140.435V22.7827C140.435 21.9236 140.408 20.992 140.356 19.9835H142.267L142.369 21.5128H142.429C142.682 21.0376 143.06 20.6454 143.556 20.3321C144.145 19.9669 144.805 19.7822 145.527 19.7822C146.44 19.7822 147.2 20.0769 147.803 20.6683C148.555 21.3924 148.93 22.4735 148.93 23.9094V29.7692Z" fill="white"/>
<path d="M154.927 29.7698H152.754V15.5H154.927V29.7698Z" fill="white"/>
<path d="M167.73 24.7981C167.73 26.3025 167.3 27.535 166.441 28.502C165.541 29.4959 164.346 29.9918 162.858 29.9918C161.42 29.9918 160.276 29.5167 159.426 28.5622C158.575 27.6097 158.15 26.4083 158.15 24.96C158.15 23.4452 158.587 22.2023 159.467 21.2374C160.347 20.2725 161.53 19.7891 163.017 19.7891C164.455 19.7891 165.607 20.2642 166.483 21.2167C167.313 22.1421 167.73 23.3373 167.73 24.7981ZM165.472 24.8687C165.472 23.966 165.277 23.1921 164.889 22.5467C164.435 21.7665 163.783 21.3764 162.941 21.3764C162.065 21.3764 161.401 21.7665 160.947 22.5467C160.557 23.1921 160.364 23.9785 160.364 24.9081C160.364 25.8107 160.559 26.5847 160.947 27.23C161.418 28.0102 162.073 28.4003 162.92 28.4003C163.75 28.4003 164.399 28.004 164.868 27.2093C165.273 26.5515 165.472 25.7713 165.472 24.8687Z" fill="white"/>
<path d="M178.254 29.7698H176.301L176.139 28.6431H176.079C175.411 29.5416 174.459 29.9918 173.222 29.9918C172.299 29.9918 171.552 29.6951 170.989 29.1058C170.479 28.5705 170.224 27.9044 170.224 27.1138C170.224 25.9186 170.722 25.0077 171.724 24.3769C172.724 23.7461 174.131 23.4369 175.942 23.4514V23.2688C175.942 21.9803 175.266 21.337 173.911 21.337C172.946 21.337 172.095 21.5798 171.361 22.0612L170.919 20.6336C171.828 20.0713 172.95 19.7891 174.274 19.7891C176.83 19.7891 178.113 21.1378 178.113 23.8353V27.4375C178.113 28.4148 178.161 29.193 178.254 29.7698ZM175.996 26.4083V24.8998C173.598 24.8583 172.398 25.5161 172.398 26.871C172.398 27.3815 172.535 27.7633 172.815 28.0185C173.095 28.2737 173.452 28.4003 173.878 28.4003C174.355 28.4003 174.801 28.2488 175.208 27.948C175.617 27.645 175.868 27.2611 175.961 26.7901C175.984 26.6843 175.996 26.5556 175.996 26.4083Z" fill="white"/>
<path d="M190.61 29.7698H188.68L188.579 28.199H188.518C187.902 29.3942 186.852 29.9918 185.377 29.9918C184.198 29.9918 183.217 29.5291 182.439 28.6036C181.661 27.6782 181.273 26.4768 181.273 25.0014C181.273 23.4182 181.694 22.1358 182.54 21.1564C183.36 20.2434 184.364 19.7869 185.56 19.7869C186.873 19.7869 187.792 20.2289 188.315 21.115H188.357V15.5H190.533V27.1345C190.533 28.087 190.558 28.9647 190.61 29.7698ZM188.357 25.6447V24.0137C188.357 23.7315 188.336 23.5033 188.296 23.329C188.174 22.8061 187.911 22.3662 187.51 22.0114C187.105 21.6565 186.618 21.4781 186.055 21.4781C185.244 21.4781 184.609 21.7997 184.142 22.445C183.68 23.0904 183.445 23.9141 183.445 24.9205C183.445 25.8875 183.667 26.6718 184.113 27.2756C184.584 27.9189 185.219 28.2405 186.014 28.2405C186.728 28.2405 187.298 27.9728 187.732 27.4354C188.151 26.9395 188.357 26.3419 188.357 25.6447Z" fill="white"/>
<path d="M209.209 24.7981C209.209 26.3025 208.779 27.535 207.92 28.502C207.02 29.4959 205.829 29.9918 204.337 29.9918C202.903 29.9918 201.76 29.5167 200.905 28.5622C200.054 27.6097 199.629 26.4083 199.629 24.96C199.629 23.4452 200.066 22.2023 200.946 21.2374C201.826 20.2725 203.009 19.7891 204.501 19.7891C205.935 19.7891 207.09 20.2642 207.962 21.2167C208.792 22.1421 209.209 23.3373 209.209 24.7981ZM206.956 24.8687C206.956 23.966 206.76 23.1921 206.372 22.5467C205.914 21.7665 205.266 21.3764 204.42 21.3764C203.548 21.3764 202.884 21.7665 202.426 22.5467C202.036 23.1921 201.843 23.9785 201.843 24.9081C201.843 25.8107 202.038 26.5847 202.426 27.23C202.897 28.0102 203.552 28.4003 204.399 28.4003C205.229 28.4003 205.883 28.004 206.352 27.2093C206.752 26.5515 206.956 25.7713 206.956 24.8687Z" fill="white"/>
<path d="M220.901 29.7692H218.729V24.1667C218.729 22.4403 218.073 21.5771 216.755 21.5771C216.11 21.5771 215.589 21.8137 215.187 22.2888C214.784 22.764 214.583 23.3243 214.583 23.9654V29.7671H212.406V22.7827C212.406 21.9236 212.381 20.992 212.329 19.9835H214.238L214.34 21.5128H214.4C214.655 21.0376 215.033 20.6454 215.527 20.3321C216.118 19.9669 216.776 19.7822 217.5 19.7822C218.411 19.7822 219.171 20.0769 219.774 20.6683C220.528 21.3924 220.901 22.4735 220.901 23.9094V29.7692Z" fill="white"/>
<path d="M235.536 21.6167H233.141V26.3684C233.141 27.5761 233.567 28.1799 234.409 28.1799C234.799 28.1799 235.123 28.1467 235.378 28.0782L235.434 29.7279C235.005 29.8897 234.44 29.9706 233.745 29.9706C232.886 29.9706 232.218 29.7092 231.735 29.1863C231.249 28.6634 231.008 27.7836 231.008 26.549V21.6167H229.579V19.9878H231.008V18.195L233.139 17.5518V19.9857H235.534V21.6167H235.536Z" fill="white"/>
<path d="M247.049 29.7698H244.872V24.2088C244.872 22.4554 244.216 21.5777 242.903 21.5777C241.894 21.5777 241.205 22.0861 240.828 23.1028C240.764 23.3165 240.726 23.578 240.726 23.8851V29.7677H238.554V15.5H240.726V21.3951H240.768C241.452 20.3223 242.434 19.7869 243.706 19.7869C244.606 19.7869 245.351 20.0816 245.943 20.673C246.679 21.4096 247.049 22.5052 247.049 23.9536V29.7698Z" fill="white"/>
<path d="M258.924 24.4164C258.924 24.8065 258.895 25.1344 258.843 25.4021H252.321C252.35 26.369 252.662 27.1056 253.266 27.6161C253.817 28.0726 254.529 28.3008 255.401 28.3008C256.366 28.3008 257.245 28.1473 258.038 27.8381L258.378 29.3487C257.451 29.7513 256.359 29.9525 255.096 29.9525C253.581 29.9525 252.388 29.5064 251.525 28.6142C250.657 27.7219 250.228 26.5246 250.228 25.0223C250.228 23.547 250.628 22.3186 251.435 21.3392C252.278 20.2934 253.417 19.7705 254.855 19.7705C256.262 19.7705 257.33 20.2934 258.053 21.3392C258.636 22.1692 258.924 23.1963 258.924 24.4164ZM256.849 23.8541C256.866 23.2088 256.722 22.6527 256.428 22.1837C256.05 21.5799 255.475 21.277 254.697 21.277C253.988 21.277 253.409 21.5716 252.967 22.163C252.606 22.634 252.392 23.1963 252.321 23.8541H256.849Z" fill="white"/>
</g>
<defs>
<clipPath id="clip0_177_40462">
<rect width="294" height="87.1111" fill="white" transform="translate(0 0.888672)"/>
</clipPath>
</defs>
</svg>
