<svg width="22" height="23" viewBox="0 0 22 23" fill="none" xmlns="http://www.w3.org/2000/svg">
<path d="M18.3333 6H3.66659C2.65406 6 1.83325 6.82081 1.83325 7.83333V15.1667C1.83325 16.1792 2.65406 17 3.66659 17H18.3333C19.3458 17 20.1666 16.1792 20.1666 15.1667V7.83333C20.1666 6.82081 19.3458 6 18.3333 6Z" stroke="#2E6DCA" stroke-width="2" stroke-linecap="round" stroke-linejoin="round"/>
<path d="M11.0001 13.3334C12.0126 13.3334 12.8334 12.5125 12.8334 11.5C12.8334 10.4875 12.0126 9.66669 11.0001 9.66669C9.98756 9.66669 9.16675 10.4875 9.16675 11.5C9.16675 12.5125 9.98756 13.3334 11.0001 13.3334Z" stroke="#489EED" stroke-width="2" stroke-linecap="round" stroke-linejoin="round"/>
<path d="M5.5 11.5H5.50917M16.5 11.5H16.5092" stroke="#489EED" stroke-width="2" stroke-linecap="round" stroke-linejoin="round"/>
</svg>
