<svg width="784" height="700" viewBox="0 0 784 700" fill="none" xmlns="http://www.w3.org/2000/svg">
<g filter="url(#filter0_f_412_799)">
<path d="M88 367C88 512.251 82.6274 630 76 630C69.3726 630 64 512.251 64 367C64 221.749 69.3726 104 76 104C82.6274 104 88 221.749 88 367Z" fill="#181818"/>
</g>
<g filter="url(#filter1_f_412_799)">
<path d="M88 367C88 512.251 82.6274 630 76 630C69.3726 630 64 512.251 64 367C64 221.749 69.3726 104 76 104C82.6274 104 88 221.749 88 367Z" fill="#181818"/>
</g>
<g filter="url(#filter2_f_412_799)">
<path d="M88 367C88 512.251 82.6274 630 76 630C69.3726 630 64 512.251 64 367C64 221.749 69.3726 104 76 104C82.6274 104 88 221.749 88 367Z" fill="#181818"/>
</g>
<path d="M78 0H784V700H78V0Z" fill="#181818"/>
<path opacity="0.15" fill-rule="evenodd" clip-rule="evenodd" d="M78 700L78 4.37114e-08L79 0L79 700L78 700Z" fill="url(#paint0_linear_412_799)"/>
<defs>
<filter id="filter0_f_412_799" x="0" y="40" width="152" height="654" filterUnits="userSpaceOnUse" color-interpolation-filters="sRGB">
<feFlood flood-opacity="0" result="BackgroundImageFix"/>
<feBlend mode="normal" in="SourceGraphic" in2="BackgroundImageFix" result="shape"/>
<feGaussianBlur stdDeviation="32" result="effect1_foregroundBlur_412_799"/>
</filter>
<filter id="filter1_f_412_799" x="0" y="40" width="152" height="654" filterUnits="userSpaceOnUse" color-interpolation-filters="sRGB">
<feFlood flood-opacity="0" result="BackgroundImageFix"/>
<feBlend mode="normal" in="SourceGraphic" in2="BackgroundImageFix" result="shape"/>
<feGaussianBlur stdDeviation="32" result="effect1_foregroundBlur_412_799"/>
</filter>
<filter id="filter2_f_412_799" x="0" y="40" width="152" height="654" filterUnits="userSpaceOnUse" color-interpolation-filters="sRGB">
<feFlood flood-opacity="0" result="BackgroundImageFix"/>
<feBlend mode="normal" in="SourceGraphic" in2="BackgroundImageFix" result="shape"/>
<feGaussianBlur stdDeviation="32" result="effect1_foregroundBlur_412_799"/>
</filter>
<linearGradient id="paint0_linear_412_799" x1="77.9975" y1="3.48763e-08" x2="77.995" y2="700" gradientUnits="userSpaceOnUse">
<stop stop-color="white" stop-opacity="0"/>
<stop offset="0.140625" stop-color="white"/>
<stop offset="0.859375" stop-color="white"/>
<stop offset="1" stop-color="white" stop-opacity="0"/>
</linearGradient>
</defs>
</svg>
