<svg width="150" height="150" viewBox="0 0 150 150" fill="none" xmlns="http://www.w3.org/2000/svg">
<path fill-rule="evenodd" clip-rule="evenodd" d="M75 150C116.421 150 150 116.421 150 75C150 33.5786 116.421 0 75 0C33.5786 0 0 33.5786 0 75C0 116.421 33.5786 150 75 150ZM93 53.0001C93 65.1504 84.9408 75 75.0003 75C65.0592 75 57 65.1504 57 53.0001C57 40.8496 59.6465 31 75.0003 31C90.354 31 93 40.8496 93 53.0001ZM84.8578 76C105.881 79.7936 108.629 85.7867 108.962 106.819C108.983 108.164 108.994 108.397 109 108.277C108.999 108.634 108.999 109.158 108.999 109.912C108.999 109.912 103.993 120 75.0008 120C46.008 120 41.0028 109.912 41.0028 109.912C41.0028 108.738 41.0013 108.066 41 107.702C41.0056 107.896 41.0202 107.808 41.0516 106.136C41.4348 85.6564 44.3492 79.7522 65.1432 76C65.1432 76 68.1031 79.7704 75.0008 79.7704C81.8985 79.7704 84.8578 76 84.8578 76Z" fill="url(#paint0_linear_177_26422)"/>
<defs>
<linearGradient id="paint0_linear_177_26422" x1="75" y1="0" x2="75" y2="150" gradientUnits="userSpaceOnUse">
<stop stop-color="#3A4147"/>
<stop offset="1" stop-color="#3A4147" stop-opacity="0.26"/>
</linearGradient>
</defs>
</svg>
