<svg width="294" height="88" viewBox="0 0 294 88" fill="none" xmlns="http://www.w3.org/2000/svg">
<g clip-path="url(#clip0_177_40463)">
<path d="M283.111 1.74222C285.537 1.74222 287.863 2.70589 289.579 4.42122C291.294 6.13655 292.258 8.46304 292.258 10.8889V76.2222C292.258 78.6481 291.294 80.9746 289.579 82.6899C287.863 84.4052 285.537 85.3689 283.111 85.3689H10.8889C8.46304 85.3689 6.13655 84.4052 4.42122 82.6899C2.70589 80.9746 1.74222 78.6481 1.74222 76.2222V10.8889C1.74222 8.46304 2.70589 6.13655 4.42122 4.42122C6.13655 2.70589 8.46304 1.74222 10.8889 1.74222H283.111ZM283.111 0H10.8889C8.00098 0 5.23134 1.14722 3.18928 3.18928C1.14722 5.23134 0 8.00098 0 10.8889V76.2222C0 79.1101 1.14722 81.8798 3.18928 83.9218C5.23134 85.9639 8.00098 87.1111 10.8889 87.1111H283.111C285.999 87.1111 288.769 85.9639 290.811 83.9218C292.853 81.8798 294 79.1101 294 76.2222V10.8889C294 8.00098 292.853 5.23134 290.811 3.18928C288.769 1.14722 285.999 0 283.111 0Z" fill="white"/>
<path d="M148.394 47.3661C146.565 47.3747 144.78 47.9248 143.264 48.947C141.748 49.9693 140.568 51.4178 139.874 53.1098C139.18 54.8017 139.003 56.6613 139.365 58.4539C139.727 60.2464 140.612 61.8915 141.908 63.1815C143.204 64.4716 144.854 65.3488 146.648 65.7024C148.442 66.056 150.301 65.8702 151.99 65.1684C153.678 64.4666 155.121 63.2803 156.136 61.7592C157.151 60.2381 157.693 58.4503 157.693 56.6216C157.711 55.3976 157.482 54.1825 157.021 53.0486C156.559 51.9148 155.874 50.8855 155.006 50.0219C154.139 49.1583 153.106 48.4781 151.97 48.0219C150.834 47.5656 149.618 47.3426 148.394 47.3661ZM148.394 62.2403C147.269 62.319 146.147 62.0575 145.173 61.4898C144.199 60.9222 143.418 60.0746 142.932 59.0573C142.446 58.0401 142.278 56.9001 142.448 55.7857C142.618 54.6713 143.12 53.6339 143.888 52.8084C144.656 51.983 145.654 51.4076 146.754 51.1571C147.853 50.9066 149.002 50.9926 150.052 51.4039C151.101 51.8151 152.003 52.5327 152.64 53.4632C153.276 54.3937 153.618 55.4942 153.621 56.6216C153.656 57.336 153.547 58.0501 153.302 58.7219C153.057 59.3937 152.68 60.0096 152.192 60.5333C151.705 61.057 151.118 61.4778 150.466 61.771C149.813 62.0641 149.109 62.2237 148.394 62.2403ZM128.119 47.3661C126.289 47.3704 124.502 47.9169 122.983 48.9365C121.464 49.9561 120.281 51.4031 119.583 53.0947C118.886 54.7864 118.706 56.6466 119.066 58.4406C119.425 60.2346 120.308 61.8817 121.604 63.174C122.899 64.4662 124.548 65.3455 126.343 65.7009C128.138 66.0563 129.998 65.8717 131.688 65.1705C133.378 64.4694 134.822 63.2831 135.838 61.7615C136.854 60.2399 137.396 58.4513 137.396 56.6216C137.414 55.3976 137.185 54.1825 136.724 53.0486C136.262 51.9148 135.577 50.8855 134.709 50.0219C133.842 49.1583 132.809 48.4781 131.673 48.0219C130.537 47.5656 129.321 47.3426 128.097 47.3661H128.119ZM128.119 62.2403C126.994 62.3234 125.87 62.0658 124.893 61.5011C123.916 60.9363 123.132 60.0906 122.643 59.074C122.153 58.0574 121.981 56.917 122.149 55.8013C122.317 54.6856 122.817 53.6463 123.583 52.8186C124.35 51.9909 125.348 51.4132 126.448 51.1607C127.547 50.9082 128.698 50.9927 129.749 51.403C130.8 51.8133 131.703 52.5306 132.34 53.4614C132.978 54.3922 133.321 55.4934 133.324 56.6216C133.359 57.336 133.251 58.0501 133.005 58.7219C132.76 59.3937 132.383 60.0096 131.895 60.5333C131.408 61.057 130.821 61.4778 130.169 61.771C129.517 62.0641 128.812 62.2237 128.097 62.2403H128.119ZM103.967 50.219V54.139H113.375C113.228 55.9853 112.46 57.7275 111.198 59.0825C110.256 60.0413 109.125 60.7923 107.876 61.2874C106.627 61.7825 105.288 62.0107 103.946 61.9572C101.173 61.9572 98.5143 60.8559 96.554 58.8955C94.5936 56.9351 93.4923 54.2763 93.4923 51.5039C93.4923 48.7315 94.5936 46.0726 96.554 44.1122C98.5143 42.1519 101.173 41.0505 103.946 41.0505C106.598 41.0073 109.159 42.0176 111.067 43.8599L113.833 41.0941C112.545 39.7896 111.008 38.7571 109.313 38.0575C107.618 37.358 105.801 37.0057 103.967 37.0216C102.031 36.9463 100.1 37.2625 98.2891 37.9515C96.4782 38.6404 94.825 39.6878 93.4286 41.0309C92.0322 42.3741 90.9212 43.9853 90.1624 45.768C89.4036 47.5508 89.0125 49.4683 89.0125 51.4059C89.0125 53.3434 89.4036 55.261 90.1624 57.0437C90.9212 58.8264 92.0322 60.4376 93.4286 61.7808C94.825 63.1239 96.4782 64.1713 98.2891 64.8602C100.1 65.5492 102.031 65.8654 103.967 65.7901C105.831 65.8743 107.692 65.5583 109.424 64.8634C111.155 64.1684 112.718 63.1106 114.007 61.7612C116.289 59.2544 117.507 55.9591 117.404 52.571C117.411 51.7456 117.338 50.9214 117.186 50.1101L103.967 50.219ZM202.642 53.2679C202.075 51.5969 201.012 50.1379 199.597 49.084C198.181 48.0301 196.479 47.431 194.715 47.3661C193.524 47.3637 192.345 47.6058 191.251 48.0772C190.157 48.5486 189.171 49.2394 188.355 50.1069C187.538 50.9744 186.909 52.0001 186.504 53.1206C186.1 54.2411 185.93 55.4327 186.004 56.6216C185.978 57.8388 186.197 59.0489 186.649 60.1795C187.1 61.3101 187.775 62.338 188.633 63.202C189.491 64.0659 190.514 64.748 191.641 65.2077C192.769 65.6673 193.977 65.895 195.194 65.8772C196.718 65.8854 198.219 65.5157 199.565 64.8012C200.91 64.0867 202.058 63.0496 202.904 61.783L199.746 59.6052C199.275 60.3909 198.607 61.0408 197.81 61.4912C197.012 61.9417 196.111 62.1773 195.194 62.175C194.251 62.2109 193.319 61.9622 192.519 61.4612C191.719 60.9602 191.088 60.23 190.708 59.3656L203.1 54.2479L202.642 53.2679ZM190.011 56.3603C189.967 55.6867 190.058 55.0111 190.278 54.3729C190.498 53.7348 190.844 53.1471 191.294 52.6441C191.744 52.1412 192.29 51.7331 192.9 51.4438C193.51 51.1545 194.172 50.9898 194.846 50.9594C195.549 50.9131 196.249 51.0742 196.861 51.4227C197.473 51.7711 197.968 52.2916 198.287 52.9194L190.011 56.3603ZM179.95 65.3327H184.022V38.1105H179.95V65.3327ZM173.286 49.435H173.134C172.52 48.7487 171.768 48.2 170.927 47.8247C170.087 47.4494 169.176 47.256 168.255 47.2572C165.875 47.3726 163.631 48.3993 161.988 50.1244C160.344 51.8496 159.427 54.1409 159.427 56.5236C159.427 58.9063 160.344 61.1977 161.988 62.9229C163.631 64.648 165.875 65.6747 168.255 65.7901C169.178 65.8056 170.093 65.6186 170.936 65.2424C171.779 64.8661 172.529 64.3097 173.134 63.6123H173.264V64.9407C173.264 68.4905 171.37 70.3852 168.321 70.3852C167.305 70.3614 166.32 70.036 165.49 69.4504C164.66 68.8648 164.023 68.0455 163.66 67.0967L160.11 68.5776C160.779 70.203 161.917 71.5918 163.38 72.5657C164.843 73.5396 166.563 74.0544 168.321 74.0439C173.09 74.0439 177.032 71.2345 177.032 64.3963V47.9105H173.286V49.435ZM168.626 62.2403C167.221 62.1165 165.913 61.471 164.961 60.4309C164.009 59.3909 163.48 58.0318 163.48 56.6216C163.48 55.2114 164.009 53.8523 164.961 52.8123C165.913 51.7723 167.221 51.1268 168.626 51.003C169.322 51.0387 170.004 51.2135 170.632 51.517C171.26 51.8205 171.821 52.2466 172.282 52.7702C172.742 53.2938 173.094 53.9043 173.315 54.5658C173.536 55.2272 173.622 55.9262 173.569 56.6216C173.629 57.32 173.546 58.0232 173.326 58.6887C173.105 59.3541 172.753 59.968 172.289 60.4933C171.824 61.0185 171.259 61.4441 170.625 61.7444C169.992 62.0447 169.304 62.2134 168.604 62.2403H168.626ZM221.72 38.1105H211.985V65.3327H216.058V55.0101H221.742C222.902 55.0935 224.068 54.9368 225.165 54.55C226.263 54.1631 227.269 53.5543 228.12 52.7615C228.972 51.9687 229.651 51.0089 230.116 49.942C230.58 48.8751 230.82 47.7239 230.82 46.5603C230.82 45.3967 230.58 44.2455 230.116 43.1786C229.651 42.1117 228.972 41.1519 228.12 40.3591C227.269 39.5663 226.263 38.9575 225.165 38.5706C224.068 38.1838 222.902 38.0271 221.742 38.1105H221.72ZM221.72 51.1772H216.036V41.8999H221.807C223.046 41.8999 224.234 42.392 225.11 43.2681C225.986 44.1441 226.478 45.3323 226.478 46.5712C226.478 47.8101 225.986 48.9983 225.11 49.8743C224.234 50.7504 223.046 51.2425 221.807 51.2425L221.72 51.1772ZM246.83 47.2572C245.347 47.1686 243.871 47.515 242.582 48.254C241.294 48.993 240.25 50.0923 239.578 51.4167L243.193 52.9194C243.549 52.2625 244.089 51.7233 244.746 51.3676C245.403 51.0119 246.15 50.8549 246.895 50.9159C247.412 50.8555 247.936 50.8987 248.436 51.0429C248.936 51.1871 249.402 51.4295 249.808 51.7558C250.213 52.0822 250.55 52.4861 250.797 52.9438C251.045 53.4016 251.199 53.9041 251.25 54.4221V54.7052C249.942 54.0126 248.484 53.6536 247.004 53.6599C243.106 53.6599 239.164 55.8376 239.164 59.7794C239.202 60.6199 239.409 61.4441 239.771 62.2034C240.134 62.9627 240.645 63.6415 241.274 64.1999C241.904 64.7582 242.639 65.1847 243.436 65.4541C244.233 65.7235 245.076 65.8303 245.915 65.7683C246.94 65.8419 247.967 65.6382 248.887 65.1783C249.806 64.7185 250.585 64.0196 251.142 63.155H251.272V65.3327H255.192V54.8576C255.192 50.0883 251.577 47.3225 246.938 47.3225L246.83 47.2572ZM246.329 62.175C245 62.175 243.149 61.4999 243.149 59.8665C243.149 57.6887 245.458 56.9701 247.505 56.9701C248.798 56.9382 250.077 57.254 251.207 57.8847C251.071 59.0638 250.513 60.1539 249.637 60.9543C248.76 61.7547 247.624 62.2114 246.438 62.2403L246.329 62.175ZM269.478 47.9105L264.818 59.7141H264.687L259.853 47.9105H255.497L262.749 64.4181L258.611 73.5865H262.858L274.008 47.9105H269.478ZM232.87 65.3327H236.942V38.1105H232.87V65.3327Z" fill="white"/>
<path d="M103.134 22.4364C103.171 23.2352 103.046 24.0331 102.765 24.7819C102.484 25.5306 102.054 26.2145 101.501 26.7919C100.884 27.4335 100.138 27.9377 99.3121 28.2717C98.4866 28.6056 97.6 28.7619 96.71 28.7302C95.3597 28.7196 94.0426 28.3108 92.9237 27.5549C91.8048 26.7991 90.9338 25.7298 90.4199 24.4811C89.906 23.2324 89.7721 21.8599 90.0348 20.5354C90.2976 19.2109 90.9454 17.9934 91.8971 17.0355C92.5226 16.3969 93.2725 15.8935 94.1003 15.5564C94.9281 15.2193 95.8164 15.0556 96.71 15.0755C97.6307 15.0724 98.5422 15.2577 99.3887 15.6199C100.177 15.9378 100.878 16.4378 101.436 17.0791L100.282 18.2333C99.8469 17.7163 99.2979 17.3074 98.6781 17.0391C98.0582 16.7707 97.3845 16.6502 96.71 16.6871C96.0298 16.6837 95.3558 16.8178 94.7287 17.0812C94.1015 17.3446 93.534 17.732 93.0601 18.2201C92.5863 18.7082 92.2159 19.2869 91.9711 19.9216C91.7264 20.5563 91.6123 21.2339 91.6358 21.9137C91.6215 22.9289 91.9082 23.9255 92.4597 24.7779C93.0112 25.6302 93.8028 26.3002 94.7346 26.7032C95.6664 27.1062 96.6967 27.2242 97.6955 27.0424C98.6944 26.8605 99.6169 26.3869 100.347 25.6813C101.017 24.9551 101.404 24.012 101.436 23.0244H96.71V21.4564H103.047C103.105 21.7798 103.135 22.1078 103.134 22.4364ZM113.109 16.9919H107.229V21.1297H112.586V22.6977H107.229V26.8355H113.109V28.4471H105.486V15.3804H113.109V16.9919ZM120.252 28.4471H118.575V16.9919H114.916V15.3804H123.998V16.9919H120.252V28.4471ZM130.4 28.4471V15.3804H132.077V28.4471H130.4ZM139.525 28.4471H137.848V16.9919H134.19V15.3804H143.162V16.9919H139.525V28.4471ZM160.17 26.7484C158.897 28.0144 157.175 28.7251 155.379 28.7251C153.584 28.7251 151.861 28.0144 150.588 26.7484C149.351 25.4385 148.661 23.7048 148.661 21.9028C148.661 20.1009 149.351 18.3672 150.588 17.0573C151.216 16.4252 151.962 15.9235 152.784 15.5811C153.607 15.2388 154.489 15.0625 155.379 15.0625C156.27 15.0625 157.152 15.2388 157.974 15.5811C158.797 15.9235 159.543 16.4252 160.17 17.0573C161.413 18.3647 162.106 20.0993 162.106 21.9028C162.106 23.7064 161.413 25.441 160.17 26.7484ZM151.83 25.6595C152.772 26.5984 154.049 27.1255 155.379 27.1255C156.71 27.1255 157.986 26.5984 158.929 25.6595C159.86 24.6338 160.375 23.2985 160.375 21.9137C160.375 20.5289 159.86 19.1936 158.929 18.1679C157.986 17.2291 156.71 16.7019 155.379 16.7019C154.049 16.7019 152.772 17.2291 151.83 18.1679C150.899 19.1936 150.384 20.5289 150.384 21.9137C150.384 23.2985 150.899 24.6338 151.83 25.6595ZM164.461 28.4471V15.3804H166.508L172.867 25.5506V15.3804H174.544V28.4471H172.802L166.159 17.7977V28.4471H164.461Z" fill="white"/>
<path fill-rule="evenodd" clip-rule="evenodd" d="M155.379 15.2803C154.517 15.2803 153.664 15.4509 152.868 15.7822C152.073 16.1131 151.352 16.598 150.745 17.2088C149.547 18.478 148.879 20.1574 148.879 21.9028C148.879 23.6481 149.546 25.3272 150.744 26.5964C151.976 27.8203 153.643 28.5073 155.379 28.5073C157.116 28.5073 158.783 27.8202 160.015 26.5961C161.217 25.3295 161.888 23.6495 161.888 21.9028C161.888 20.156 161.217 18.4758 160.014 17.2091C159.407 16.5981 158.686 16.1132 157.891 15.7822C157.095 15.4509 156.241 15.2803 155.379 15.2803ZM152.701 15.3801C153.55 15.0267 154.46 14.8447 155.379 14.8447C156.299 14.8447 157.209 15.0267 158.058 15.3801C158.907 15.7335 159.677 16.2513 160.325 16.9038L160.328 16.9072C161.609 18.2551 162.323 20.0435 162.323 21.9028C162.323 23.7622 161.609 25.5505 160.328 26.8984L160.324 26.9029C159.01 28.2095 157.232 28.9429 155.379 28.9429C153.526 28.9429 151.749 28.2094 150.435 26.9028L150.43 26.898C149.154 25.5477 148.444 23.7604 148.444 21.9028C148.444 20.0452 149.154 18.258 150.43 16.9077L150.434 16.9038C151.081 16.2513 151.852 15.7335 152.701 15.3801ZM96.7052 15.2932C95.8413 15.274 94.9827 15.4322 94.1824 15.7581C93.3822 16.084 92.6573 16.5706 92.0527 17.1879L92.0516 17.189C91.1301 18.1165 90.5029 19.2953 90.2485 20.5778C89.994 21.8602 90.1237 23.1892 90.6213 24.3983C91.1189 25.6073 91.9622 26.6426 93.0456 27.3745C94.129 28.1063 95.4043 28.5022 96.7117 28.5124L96.7178 28.5124C97.5771 28.543 98.4333 28.3923 99.2304 28.0698C100.028 27.7473 100.748 27.2605 101.344 26.6411C101.877 26.085 102.291 25.4264 102.561 24.7054C102.832 23.9843 102.953 23.2158 102.917 22.4465L103.134 22.4364L102.917 22.4363C102.917 22.1812 102.899 21.9265 102.862 21.6742H96.9278V22.8066H101.661L101.653 23.0315C101.619 24.0714 101.213 25.0643 100.507 25.829L100.498 25.8381C99.7376 26.5736 98.7757 27.067 97.7346 27.2566C96.6934 27.4462 95.6195 27.3232 94.6482 26.9031C93.6769 26.483 92.8517 25.7847 92.2769 24.8962C91.703 24.0091 91.4041 22.9723 91.418 21.9159C91.3942 21.2086 91.5133 20.5036 91.7679 19.8432C92.0232 19.1812 92.4096 18.5775 92.9039 18.0684C93.3981 17.5593 93.9901 17.1552 94.6443 16.8804C95.2966 16.6065 95.9972 16.4667 96.7046 16.4693C97.4106 16.4317 98.1157 16.5583 98.7646 16.8392C99.3429 17.0896 99.8623 17.4563 100.291 17.9157L101.135 17.0715C100.624 16.5282 100.001 16.1016 99.3072 15.8219L99.303 15.8202C98.4839 15.4697 97.6017 15.2903 96.7107 15.2933L96.7052 15.2932ZM103.352 22.4314C103.39 23.2579 103.259 24.0836 102.969 24.8583C102.678 25.6347 102.232 26.3438 101.658 26.9426C101.02 27.6062 100.248 28.1281 99.3938 28.4735C98.5408 28.8186 97.6248 28.9802 96.7053 28.9479C95.3132 28.9364 93.9554 28.5147 92.8018 27.7354C91.6474 26.9555 90.7487 25.8523 90.2185 24.564C89.6883 23.2757 89.5501 21.8595 89.8212 20.493C90.0923 19.1267 90.7605 17.8708 91.7421 16.8826C92.3883 16.223 93.163 15.703 94.0182 15.3547C94.8727 15.0067 95.7896 14.8375 96.7121 14.8577C97.6607 14.8549 98.6 15.0459 99.4723 15.4188C100.291 15.7496 101.021 16.2695 101.6 16.9362L101.733 17.0894L100.268 18.5552L100.115 18.3734C99.7019 17.8823 99.1804 17.4939 98.5916 17.2389C98.0027 16.984 97.3626 16.8695 96.7219 16.9045L96.7089 16.9052C96.058 16.902 95.4131 17.0299 94.813 17.282C94.2129 17.5341 93.6698 17.9047 93.2164 18.3718C92.763 18.8388 92.4085 19.3926 92.1743 19.9999C91.9401 20.6073 91.831 21.2557 91.8534 21.9062L91.8538 21.9168C91.8401 22.8889 92.1144 23.8433 92.6426 24.6596C93.1707 25.4758 93.9287 26.1174 94.8211 26.5033C95.7134 26.8893 96.7 27.0023 97.6565 26.8281C98.611 26.6543 99.4927 26.2023 100.191 25.529C100.772 24.8973 101.127 24.093 101.204 23.2422H96.4922V21.2386H103.229L103.262 21.4179C103.322 21.7524 103.352 22.0915 103.352 22.4314ZM105.269 15.1626H113.326V17.2097H107.446V20.9119H112.804V22.9155H107.446V26.6177H113.326V28.6648H105.269V15.1626ZM105.704 15.5982V28.2293H112.891V27.0533H107.011V22.4799H112.368V21.3475H107.011V16.7742H112.891V15.5982H105.704ZM114.698 15.1626H124.215V17.2097H120.47V28.6648H118.357V17.2097H114.698V15.1626ZM115.134 15.5982V16.7742H118.793V28.2293H120.034V16.7742H123.78V15.5982H115.134ZM130.182 15.1626H132.295V28.6648H130.182V15.1626ZM130.618 15.5982V28.2293H131.859V15.5982H130.618ZM133.972 15.1626H143.38V17.2097H139.743V28.6648H137.63V17.2097H133.972V15.1626ZM134.407 15.5982V16.7742H138.066V28.2293H139.307V16.7742H142.944V15.5982H134.407ZM164.243 15.1626H166.628L172.649 24.7915V15.1626H174.762V28.6648H172.681L166.377 18.5584V28.6648H164.243V15.1626ZM164.678 15.5982V28.2293H165.942V17.0371L172.922 28.2293H174.326V15.5982H173.085V26.3097L166.387 15.5982H164.678ZM151.676 18.0136C152.66 17.0341 153.991 16.4841 155.379 16.4841C156.768 16.4841 158.099 17.0341 159.083 18.0136L159.091 18.0214C160.057 19.0872 160.593 20.4748 160.593 21.9137C160.593 23.3526 160.057 24.7401 159.09 25.8058L159.083 25.814C158.099 26.7935 156.768 27.3433 155.379 27.3433C153.991 27.3433 152.66 26.7933 151.676 25.8138L151.83 25.6595L151.668 25.8058C150.701 24.7401 150.166 23.3526 150.166 21.9137C150.166 20.4748 150.701 19.0874 151.668 18.0216L151.676 18.0136ZM151.987 25.5091C152.889 26.4049 154.108 26.9077 155.379 26.9077C156.65 26.9077 157.87 26.4049 158.772 25.5091C159.663 24.524 160.157 23.2426 160.157 21.9137C160.157 20.5848 159.663 19.3034 158.772 18.3183C157.87 17.4225 156.65 16.9197 155.379 16.9197C154.108 16.9197 152.889 17.4225 151.987 18.3183C151.095 19.3034 150.602 20.5848 150.602 21.9137C150.602 23.2426 151.095 24.524 151.987 25.5091Z" fill="white"/>
<path d="M22.8566 71.2102L49.5357 43.5388L22.879 15.917C22.167 16.347 21.7264 17.3427 21.7264 18.6461V68.5075C21.7359 69.8109 22.1606 70.7338 22.8566 71.2102Z" fill="white"/>
<path d="M50.4913 42.7741L58.4382 34.5306L26.076 16.1249C25.531 15.7965 24.912 15.623 24.2816 15.6221L50.4881 42.7708L50.4913 42.7741Z" fill="white"/>
<path d="M50.4913 44.3057L24.2018 71.5735C24.8616 71.5849 25.5116 71.4063 26.0791 71.0575L58.5052 52.6021L50.4913 44.3057Z" fill="white"/>
<path d="M70.162 41.2096L59.3927 35.0732L51.2288 43.5417L59.4534 52.0631L70.1588 45.9433C72.4353 44.6433 72.4353 42.503 70.162 41.2096Z" fill="white"/>
</g>
<defs>
<clipPath id="clip0_177_40463">
<rect width="294" height="87.1111" fill="white"/>
</clipPath>
</defs>
</svg>
