<svg width="70" height="70" viewBox="0 0 70 70" fill="none" xmlns="http://www.w3.org/2000/svg">
<g clip-path="url(#clip0_4176_42968)">
<path d="M17.5 23.3334V20.4167C17.5 15.7754 19.3437 11.3242 22.6256 8.04232C25.9075 4.76043 30.3587 2.91669 35 2.91669C39.6413 2.91669 44.0925 4.76043 47.3744 8.04232C50.6563 11.3242 52.5 15.7754 52.5 20.4167V23.3334H58.3333C59.1069 23.3334 59.8488 23.6406 60.3957 24.1876C60.9427 24.7346 61.25 25.4765 61.25 26.25V61.25C61.25 62.0236 60.9427 62.7654 60.3957 63.3124C59.8488 63.8594 59.1069 64.1667 58.3333 64.1667H11.6667C10.8931 64.1667 10.1513 63.8594 9.60427 63.3124C9.05729 62.7654 8.75 62.0236 8.75 61.25V26.25C8.75 25.4765 9.05729 24.7346 9.60427 24.1876C10.1513 23.6406 10.8931 23.3334 11.6667 23.3334H17.5ZM55.4167 29.1667H14.5833V58.3334H55.4167V29.1667ZM32.0833 45.885C30.9713 45.243 30.1021 44.2519 29.6107 43.0655C29.1193 41.8792 29.0331 40.5638 29.3654 39.3234C29.6978 38.0831 30.4301 36.987 31.4489 36.2053C32.4677 35.4236 33.7159 34.9999 35 34.9999C36.2841 34.9999 37.5324 35.4236 38.5511 36.2053C39.5699 36.987 40.3022 38.0831 40.6346 39.3234C40.9669 40.5638 40.8807 41.8792 40.3893 43.0655C39.8979 44.2519 39.0287 45.243 37.9167 45.885V52.5H32.0833V45.885ZM23.3333 23.3334H46.6667V20.4167C46.6667 17.3225 45.4375 14.355 43.2496 12.1671C41.0617 9.97918 38.0942 8.75002 35 8.75002C31.9058 8.75002 28.9383 9.97918 26.7504 12.1671C24.5625 14.355 23.3333 17.3225 23.3333 20.4167V23.3334Z" fill="#71727D"/>
</g>
<defs>
<clipPath id="clip0_4176_42968">
<rect width="70" height="70" fill="white"/>
</clipPath>
</defs>
</svg>
