<svg width="1080" height="1080" viewBox="0 0 267 56" fill="none" xmlns="http://www.w3.org/2000/svg">
<path d="M69.4796 39.7627V29.3015H77.4172V25.3653H69.4796V19.0176H79.8376V15.0104H64.4963V39.7627H69.4796ZM89.3414 39.7627V13.521H84.3581V39.7627H89.3414ZM103.864 40.0819C106.213 40.0819 108.195 39.4731 109.808 38.2556C111.422 37.0381 112.513 35.4837 113.083 33.5924H107.708C106.925 35.1764 105.608 35.9683 103.757 35.9683C102.476 35.9683 101.396 35.5664 100.518 34.7626C99.6401 33.9588 99.1418 32.8477 99.0231 31.4292H113.439C113.534 30.8618 113.581 30.2235 113.581 29.5143C113.581 27.5993 113.172 25.9031 112.353 24.4255C111.535 22.9479 110.384 21.8073 108.901 21.0035C107.417 20.1997 105.739 19.7978 103.864 19.7978C101.918 19.7978 100.198 20.2115 98.7028 21.0389C97.2078 21.8664 96.045 23.0484 95.2145 24.5851C94.3839 26.1218 93.9687 27.9067 93.9687 29.9398C93.9687 31.9493 94.3899 33.7224 95.2323 35.2591C96.0747 36.7958 97.2493 37.9838 98.7561 38.823C100.263 39.6623 101.966 40.0819 103.864 40.0819ZM108.42 28.0958H99.0587C99.2485 26.7719 99.7647 25.7376 100.607 24.9929C101.449 24.2482 102.488 23.8759 103.722 23.8759C105.027 23.8759 106.13 24.26 107.032 25.0284C107.934 25.7967 108.396 26.8192 108.42 28.0958ZM121.448 39.7627L125.043 33.6633L129.101 39.7627H134.724L128.175 29.9044L134.653 20.1169H129.314L125.683 26.1809L121.661 20.1169H116.037L122.551 29.9044L116.109 39.7627H121.448ZM145.083 49.0537L157.291 20.1169H151.988L146.827 33.8406L141.737 20.1169H136.148L144.05 39.2663L139.779 49.0537H145.083ZM171.884 40.4034C173.24 40.4034 174.518 40.2129 175.717 39.832C176.916 39.4511 177.996 38.8739 178.958 38.1005C179.92 37.3271 180.737 36.3545 181.409 35.1828C182.081 34.0112 182.562 32.6288 182.851 31.0358H177.55C177.435 31.4398 177.272 31.9131 177.064 32.4557C176.855 32.9982 176.539 33.5177 176.117 34.0141C175.694 34.5104 175.129 34.9318 174.422 35.2781C173.715 35.6244 172.8 35.7975 171.676 35.7975C170.703 35.7975 169.831 35.5984 169.06 35.2002C168.29 34.8019 167.632 34.2276 167.087 33.4773C166.543 32.727 166.126 31.8092 165.836 30.7241C165.546 29.6391 165.402 28.4097 165.402 27.036C165.402 25.7662 165.512 24.6695 165.732 23.7461C165.952 22.8226 166.239 22.0347 166.592 21.3825C166.946 20.7303 167.348 20.2022 167.8 19.7982C168.252 19.3941 168.71 19.0796 169.173 18.8545C169.637 18.6294 170.088 18.4764 170.529 18.3956C170.969 18.3148 171.351 18.2744 171.676 18.2744C172.441 18.2744 173.107 18.3495 173.675 18.4995C174.242 18.6496 174.729 18.8458 175.135 19.0882C175.54 19.3307 175.879 19.6077 176.151 19.9194C176.424 20.2311 176.649 20.5485 176.829 20.8717C177.009 21.1949 177.151 21.5153 177.255 21.8327C177.359 22.1502 177.446 22.4301 177.516 22.6725H182.851C182.805 22.1184 182.692 21.5095 182.512 20.8457C182.333 20.182 182.061 19.5182 181.696 18.8545C181.331 18.1907 180.861 17.5472 180.288 16.9238C179.714 16.3005 179.022 15.7464 178.211 15.2616C177.4 14.7767 176.455 14.39 175.378 14.1014C174.3 13.8128 173.066 13.6685 171.676 13.6685C170.703 13.6685 169.741 13.7811 168.791 14.0062C167.841 14.2313 166.934 14.5776 166.071 15.0451C165.208 15.5126 164.411 16.1071 163.681 16.8286C162.951 17.5501 162.317 18.4043 161.778 19.3913C161.239 20.3782 160.819 21.5066 160.518 22.7764C160.217 24.0462 160.066 25.4661 160.066 27.036C160.066 29.0676 160.327 30.906 160.848 32.5509C161.369 34.1959 162.131 35.6013 163.134 36.7672C164.136 37.9331 165.37 38.8306 166.835 39.4597C168.301 40.0889 169.984 40.4034 171.884 40.4034ZM192.643 39.7627V28.9114C192.643 27.3511 193.04 26.1513 193.835 25.3121C194.63 24.4728 195.716 24.0532 197.092 24.0532C198.445 24.0532 199.513 24.4728 200.296 25.3121C201.079 26.1513 201.47 27.3511 201.47 28.9114V39.7627H206.454V28.2377C206.454 26.4646 206.127 24.9456 205.475 23.6808C204.822 22.416 203.915 21.4585 202.752 20.8084C201.589 20.1583 200.26 19.8332 198.765 19.8332C197.46 19.8332 196.274 20.0755 195.206 20.5602C194.138 21.0448 193.284 21.7127 192.643 22.5638V13.521H187.66V39.7627H192.643ZM219.873 40.0819C221.344 40.0819 222.643 39.7805 223.77 39.1776C224.898 38.5748 225.781 37.8124 226.422 36.8903V39.7627H231.441V20.1169H226.422V22.9184C225.758 22.02 224.874 21.2753 223.77 20.6843C222.667 20.0933 221.38 19.7978 219.908 19.7978C218.224 19.7978 216.699 20.2115 215.334 21.0389C213.97 21.8664 212.89 23.0484 212.095 24.5851C211.3 26.1218 210.903 27.883 210.903 29.8689C210.903 31.8784 211.3 33.6574 212.095 35.2059C212.89 36.7544 213.97 37.9542 215.334 38.8053C216.699 39.6564 218.212 40.0819 219.873 40.0819ZM221.19 35.7201C220.288 35.7201 219.44 35.4837 218.645 35.0109C217.85 34.538 217.209 33.8584 216.723 32.9718C216.236 32.0853 215.993 31.051 215.993 29.8689C215.993 28.6868 216.236 27.6644 216.723 26.8015C217.209 25.9386 217.844 25.2825 218.627 24.8333C219.41 24.3841 220.264 24.1596 221.19 24.1596C222.115 24.1596 222.981 24.3901 223.788 24.8511C224.595 25.3121 225.236 25.974 225.71 26.8369C226.185 27.6998 226.422 28.7341 226.422 29.9398C226.422 31.1455 226.185 32.1798 225.71 33.0427C225.236 33.9056 224.595 34.5676 223.788 35.0286C222.981 35.4896 222.115 35.7201 221.19 35.7201ZM239.841 17.7764C240.719 17.7764 241.449 17.4986 242.03 16.9431C242.612 16.3875 242.902 15.696 242.902 14.8686C242.902 14.0411 242.612 13.3496 242.03 12.794C241.449 12.2385 240.719 11.9607 239.841 11.9607C238.963 11.9607 238.234 12.2385 237.652 12.794C237.071 13.3496 236.78 14.0411 236.78 14.8686C236.78 15.696 237.071 16.3875 237.652 16.9431C238.234 17.4986 238.963 17.7764 239.841 17.7764ZM242.297 39.7627V20.1169H237.314V39.7627H242.297ZM253.189 39.7627V28.9114C253.189 27.3511 253.587 26.1513 254.382 25.3121C255.177 24.4728 256.262 24.0532 257.639 24.0532C258.991 24.0532 260.059 24.4728 260.842 25.3121C261.625 26.1513 262.017 27.3511 262.017 28.9114V39.7627H267V28.2377C267 25.5898 266.276 23.5272 264.829 22.0496C263.381 20.572 261.483 19.8332 259.134 19.8332C257.9 19.8332 256.767 20.0755 255.734 20.5602C254.702 21.0448 253.854 21.7127 253.189 22.5638V20.1169H248.206V39.7627H253.189Z" fill="white"/>
<path d="M48.7469 21.5397V13.2947L24.6264 27.0484L12.1868 19.9138V48.2603L24.6252 55.3943L48.7469 41.5921V33.2505L24.6217 47.1024L19.3519 44.1574V32.2713L24.6229 35.3431L48.7469 21.5397Z" fill="#489EED"/>
<path d="M43.2075 10.8424L24.2892 0L0 13.8728V41.2483L7.44134 45.4232V17.8799L12.6539 15.0293L24.2931 21.835L31.416 17.5413L19.9539 10.8498L24.2889 8.37295L35.9631 15.0318L43.2075 10.8424Z" fill="#2E6DCA"/>
</svg>
