<svg width="152" height="186" viewBox="0 0 152 186" fill="none" xmlns="http://www.w3.org/2000/svg">
<path d="M11 0C4.95 0 0 4.95 0 11V165C0 171.05 4.95 176 11 176H121C127.05 176 132 171.05 132 165V44L88 0H11Z" fill="#E3EBF2"/>
<path d="M99 44H132L88 0V33C88 39.05 92.95 44 99 44Z" fill="#BFCCD9"/>
<rect opacity="0.1" x="17" y="20" width="58" height="36" rx="4" fill="black"/>
<rect opacity="0.1" x="17" y="66" width="98" height="10" rx="4" fill="black"/>
<rect opacity="0.1" x="17" y="86" width="98" height="10" rx="4" fill="black"/>
<rect opacity="0.1" x="17" y="106" width="98" height="10" rx="4" fill="black"/>
<rect opacity="0.1" x="17" y="126" width="98" height="10" rx="4" fill="black"/>
<rect opacity="0.1" x="17" y="146" width="98" height="10" rx="4" fill="black"/>
<circle cx="121" cy="155" r="31" fill="url(#paint0_linear_253_31365)"/>
<path fill-rule="evenodd" clip-rule="evenodd" d="M111 141.464L121 151.464L131 141.464L134.535 145L124.535 155L134.535 165L131 168.536L121 158.536L111 168.536L107.464 165L117.464 155L107.464 145L111 141.464Z" fill="white"/>
<defs>
<linearGradient id="paint0_linear_253_31365" x1="90" y1="155" x2="152" y2="155" gradientUnits="userSpaceOnUse">
<stop stop-color="#2E6DCA"/>
<stop offset="1" stop-color="#489EED"/>
</linearGradient>
</defs>
</svg>
