<svg width="89" height="90" viewBox="0 0 89 90" fill="none" xmlns="http://www.w3.org/2000/svg">
<g opacity="0.06" clip-path="url(#clip0_4076_42807)">
<path d="M76.8489 16.2992C77.875 16.4627 78.8471 16.5173 79.7652 16.7898C85.3277 18.2071 89 23.0588 89 29.0551C89 40.6663 89 52.2229 89 63.834C89 68.4131 89 73.0466 89 77.6257C89 83.6766 85.0036 88.5827 79.1711 89.7819C78.307 89.9455 77.335 90.0545 76.4169 90.0545C55.139 90.0545 33.861 90.0545 12.5831 90.0545C5.29248 90 0 84.6578 0 77.2986C0 55.7662 0 34.2338 0 12.7014C0 5.34222 5.29248 0 12.5291 0C29.7567 0 47.0382 0 64.2658 0C71.5564 0 76.7949 5.34222 76.8489 12.7014C76.8489 13.9007 76.8489 15.0999 76.8489 16.2992ZM8.10073 24.2035C8.10073 24.2035 8.10073 24.3125 8.10073 24.4761C8.10073 42.1926 8.10073 59.8546 8.10073 77.5712C8.10073 80.0787 9.82888 81.7686 12.4211 81.7686C33.807 81.7686 55.193 81.7686 76.5789 81.7686C79.2251 81.7686 80.8993 80.0787 80.8993 77.4076C80.8993 74.5185 80.8993 71.6293 80.8993 68.7947C80.8993 67.7044 80.8993 66.6142 80.8993 65.4694C80.4132 65.4694 80.0892 65.4694 79.7112 65.4694C73.4466 65.4694 67.128 65.4694 60.8635 65.4694C52.8708 65.4694 47.2002 58.2738 48.8744 50.424C50.0625 44.8637 54.9769 40.9933 60.7555 40.9388C67.074 40.9388 73.3926 40.9388 79.7112 40.9388C80.0892 40.9388 80.4672 40.9388 80.8453 40.9388C80.8453 40.6663 80.8453 40.5027 80.8453 40.3392C80.8453 36.4143 80.8453 32.5439 80.8453 28.619C80.8453 28.3465 80.8453 28.0194 80.7373 27.7468C80.2512 25.6753 78.6851 24.4761 76.2009 24.4761C55.841 24.4761 35.4272 24.4761 15.0674 24.4761C12.7451 24.4761 10.4229 24.258 7.99272 24.149L8.10073 24.2035ZM68.7482 16.3537C68.7482 15.1545 68.7482 14.0642 68.7482 13.0285C68.7482 9.70321 67.236 8.17686 63.9958 8.17686C46.9302 8.17686 29.9187 8.17686 12.8532 8.17686C12.5291 8.17686 12.2051 8.17686 11.8811 8.17686C9.77488 8.3404 8.10073 10.0848 8.10073 12.2108C8.10073 14.6638 9.93689 16.3537 12.6911 16.3537C31.0528 16.3537 49.3604 16.3537 67.7221 16.3537C68.0461 16.3537 68.3161 16.3537 68.7482 16.3537ZM80.8453 49.1702L80.6833 49.0612C73.9866 49.0612 67.236 49.0612 60.5394 49.0612C58.7573 49.0612 57.3532 50.2604 56.8671 51.8413C56.003 54.5669 57.9472 57.1835 60.8635 57.1835C67.3441 57.1835 73.8246 57.1835 80.2512 57.1835C80.4672 57.1835 80.6833 57.1835 80.8993 57.129V49.1702H80.8453Z" fill="url(#paint0_linear_4076_42807)"/>
</g>
<defs>
<linearGradient id="paint0_linear_4076_42807" x1="44.5" y1="0" x2="44.5" y2="90.0545" gradientUnits="userSpaceOnUse">
<stop stop-color="white"/>
<stop offset="1" stop-color="white" stop-opacity="0"/>
</linearGradient>
<clipPath id="clip0_4076_42807">
<rect width="89" height="90" fill="white"/>
</clipPath>
</defs>
</svg>
