<svg width="30" height="31" viewBox="0 0 30 31" fill="none" xmlns="http://www.w3.org/2000/svg">
<circle cx="15" cy="15.5" r="15" fill="#3468D1"/>
<g clip-path="url(#clip0_1782_30644)">
<path d="M11.7913 16.8611C11.0743 16.8761 10.4299 16.2694 10.4143 15.5624C10.3988 14.8705 11.0223 14.2488 11.755 14.2287C12.4824 14.2087 13.1371 14.8304 13.1475 15.5374C13.1527 16.2343 12.524 16.846 11.7913 16.8611Z" fill="white"/>
<path d="M19.5853 15.5475C19.5905 16.2444 18.9514 16.8561 18.224 16.8611C17.5017 16.8661 16.8626 16.2544 16.8522 15.5575C16.8418 14.8555 17.4965 14.2238 18.224 14.2288C18.9566 14.2338 19.5802 14.8455 19.5853 15.5475Z" fill="white"/>
<path d="M13.4075 16.8762C14.1765 16.8762 14.7637 17.4328 14.7637 18.1648C14.7637 18.8818 14.1557 19.4785 13.4179 19.4835C12.68 19.4885 12.0669 18.8918 12.0669 18.1748C12.0669 17.4378 12.6437 16.8812 13.4075 16.8762Z" fill="white"/>
<path d="M13.4283 14.1235C12.6541 14.1235 12.0721 13.577 12.0669 12.8449C12.0669 12.1179 12.6645 11.5263 13.4023 11.5213C14.1402 11.5163 14.7637 12.1079 14.7689 12.8199C14.7689 13.5519 14.1869 14.1235 13.4283 14.1235Z" fill="white"/>
<path d="M16.598 14.1234C15.8289 14.1234 15.2418 13.5718 15.2366 12.8398C15.2366 12.1128 15.8549 11.5111 16.6032 11.5211C17.3306 11.5261 17.9334 12.1178 17.9334 12.8247C17.9386 13.5618 17.3618 14.1234 16.598 14.1234Z" fill="white"/>
<path d="M16.5821 16.8762C17.3511 16.8762 17.9331 17.4278 17.9383 18.1648C17.9383 18.8868 17.3355 19.4785 16.5977 19.4835C15.8598 19.4885 15.2415 18.8918 15.2415 18.1748C15.2363 17.4428 15.8183 16.8812 16.5821 16.8762Z" fill="white"/>
<path d="M18.8736 12.8551C18.8788 12.3838 19.2321 12.0629 19.7465 12.0679C20.209 12.0729 20.5883 12.449 20.5779 12.8852C20.5675 13.3214 20.1726 13.7025 19.7258 13.7075C19.2477 13.7125 18.8684 13.3365 18.8736 12.8551Z" fill="white"/>
<path d="M14.992 11.0599C14.5192 11.0599 14.1503 10.7089 14.1451 10.2577C14.1399 9.8014 14.5244 9.42035 14.9972 9.41533C15.4649 9.41032 15.8546 9.79138 15.8546 10.2476C15.8546 10.7139 15.4805 11.0649 14.992 11.0599Z" fill="white"/>
<path d="M10.2899 12.0679C10.7887 12.0679 11.1317 12.4038 11.1265 12.8902C11.1213 13.3414 10.7523 13.7024 10.2899 13.7074C9.83781 13.7175 9.42732 13.3163 9.42212 12.8751C9.42212 12.4289 9.80663 12.0679 10.2899 12.0679Z" fill="white"/>
<path d="M19.7052 18.9371C19.2219 18.9371 18.879 18.6011 18.8738 18.1298C18.8738 17.6635 19.2479 17.2975 19.7208 17.2925C20.1728 17.2925 20.5833 17.6886 20.5833 18.1298C20.5781 18.5811 20.1884 18.9371 19.7052 18.9371Z" fill="white"/>
<path d="M14.9972 19.9397C15.4857 19.9397 15.8598 20.2957 15.8546 20.757C15.8494 21.2132 15.4493 21.5943 14.9868 21.5843C14.5244 21.5742 14.1503 21.2082 14.1451 20.762C14.1399 20.2957 14.514 19.9397 14.9972 19.9397Z" fill="white"/>
<path d="M10.2793 18.937C9.81164 18.937 9.43232 18.581 9.42192 18.1397C9.41673 17.6985 9.82203 17.2974 10.2741 17.2974C10.7469 17.2924 11.1263 17.6634 11.1263 18.1297C11.1263 18.606 10.7833 18.937 10.2793 18.937Z" fill="white"/>
<path d="M22.0276 14.7754C22.4381 14.7754 22.7655 15.0913 22.7551 15.4673C22.7447 15.8434 22.4173 16.1492 22.0328 16.1542C21.6327 16.1542 21.3105 15.8383 21.3157 15.4523C21.3209 15.0612 21.6223 14.7754 22.0276 14.7754Z" fill="white"/>
<path d="M17.7823 21.3737C17.7926 21.0026 18.1252 20.6918 18.5097 20.7068C18.889 20.7169 19.2216 21.0478 19.2164 21.4088C19.2112 21.7948 18.8786 22.0957 18.4733 22.0907C18.0628 22.0857 17.7719 21.7848 17.7823 21.3737Z" fill="white"/>
<path d="M17.7823 9.60612C17.7771 9.19999 18.0733 8.90918 18.4942 8.90918C18.8839 8.90918 19.206 9.205 19.2164 9.58105C19.232 9.94706 18.8787 10.293 18.4942 10.293C18.1045 10.293 17.7875 9.98216 17.7823 9.60612Z" fill="white"/>
<path d="M8.68378 15.4674C8.67859 15.8585 8.34603 16.1643 7.94593 16.1493C7.55622 16.1342 7.23925 15.8183 7.24445 15.4473C7.24964 15.0663 7.577 14.7704 7.99269 14.7755C8.3928 14.7805 8.68898 15.0763 8.68378 15.4674Z" fill="white"/>
<path d="M12.2172 21.4089C12.2172 21.81 11.9106 22.0958 11.4897 22.0908C11.1 22.0858 10.783 21.7749 10.7778 21.3988C10.7778 21.0378 11.1156 20.7069 11.4897 20.7019C11.8898 20.7019 12.2224 21.0228 12.2172 21.4089Z" fill="white"/>
<path d="M11.5158 8.90918C11.9315 8.91419 12.2277 9.21002 12.2225 9.61614C12.2173 9.98718 11.8899 10.298 11.5054 10.298C11.1313 10.298 10.7883 9.96712 10.7883 9.60612C10.7779 9.22004 11.1105 8.90918 11.5158 8.90918Z" fill="white"/>
<path d="M7.46858 11.8623C7.15681 11.8623 6.88661 11.6116 6.88142 11.3108C6.87622 11.01 7.16201 10.7292 7.47378 10.7342C7.79594 10.7392 8.06614 11.01 8.06095 11.3158C8.05055 11.6166 7.78555 11.8623 7.46858 11.8623Z" fill="white"/>
<path d="M22.5316 11.8623C22.2198 11.8623 21.9496 11.6116 21.9444 11.3158C21.9392 11.01 22.2094 10.7392 22.5316 10.7342C22.8434 10.7292 23.1291 11.01 23.1239 11.3108C23.1136 11.6116 22.8434 11.8623 22.5316 11.8623Z" fill="white"/>
<path d="M8.06039 19.704C8.06039 20.0148 7.7798 20.2756 7.45763 20.2705C7.15626 20.2655 6.88086 19.9948 6.88086 19.704C6.88086 19.3981 7.16145 19.1374 7.48361 19.1424C7.80058 19.1474 8.06039 19.4031 8.06039 19.704Z" fill="white"/>
<path d="M22.5368 19.1375C22.8485 19.1425 23.1187 19.3982 23.1187 19.694C23.1187 19.9948 22.8278 20.2756 22.5212 20.2656C22.2094 20.2556 21.9496 20.0049 21.9444 19.704C21.9392 19.3982 22.2146 19.1375 22.5368 19.1375Z" fill="white"/>
<path d="M15.0235 6.55257C15.3405 6.55758 15.6003 6.8183 15.5899 7.11413C15.5795 7.41496 15.3145 7.65563 14.9924 7.65062C14.6754 7.6456 14.4104 7.39992 14.4104 7.09908C14.4156 6.79323 14.6858 6.54755 15.0235 6.55257Z" fill="white"/>
<path d="M15.0028 24.4473C14.6807 24.4473 14.4157 24.2066 14.4105 23.9058C14.4053 23.5949 14.6755 23.3442 15.008 23.3442C15.325 23.3493 15.59 23.5999 15.5848 23.9008C15.5848 24.2066 15.325 24.4473 15.0028 24.4473Z" fill="white"/>
<path d="M10.2016 8.0017C9.92101 8.00672 9.69758 7.80114 9.69238 7.54042C9.69238 7.29474 9.9366 7.05908 10.1964 7.05908C10.4458 7.05908 10.6797 7.2797 10.69 7.52036C10.7004 7.78109 10.4822 8.0017 10.2016 8.0017Z" fill="white"/>
<path d="M5.4779 15.0261C5.7481 15.0261 5.98193 15.2518 5.97674 15.5024C5.97154 15.7582 5.73771 15.9738 5.46751 15.9687C5.18692 15.9637 4.99466 15.7582 4.99986 15.4774C5.00505 15.2217 5.2077 15.0261 5.4779 15.0261Z" fill="white"/>
<path d="M25.0001 15.5125C24.9949 15.7782 24.7974 15.9738 24.5272 15.9738C24.257 15.9738 24.0232 15.7582 24.0232 15.5024C24.0232 15.2467 24.257 15.0261 24.5272 15.0261C24.8078 15.0311 25.0053 15.2317 25.0001 15.5125Z" fill="white"/>
<path d="M19.7981 8.0017C19.5175 7.99669 19.2993 7.78109 19.3097 7.52036C19.3201 7.2797 19.5539 7.05908 19.8033 7.05908C20.0631 7.05908 20.3073 7.29474 20.3073 7.54042C20.3021 7.80114 20.0787 8.00672 19.7981 8.0017Z" fill="white"/>
<path d="M10.2013 22.9983C10.4819 22.9983 10.7001 23.2139 10.6897 23.4746C10.6793 23.7153 10.4507 23.9359 10.2013 23.9409C9.94668 23.9459 9.69727 23.7103 9.69727 23.4646C9.69727 23.2039 9.9207 22.9983 10.2013 22.9983Z" fill="white"/>
<path d="M20.3078 23.4594C20.313 23.7051 20.0635 23.9408 19.8089 23.9408C19.5595 23.9408 19.3257 23.7201 19.3153 23.4795C19.3049 23.2187 19.5231 23.0032 19.8037 22.9981C20.0791 22.9931 20.3026 23.1987 20.3078 23.4594Z" fill="white"/>
</g>
<defs>
<clipPath id="clip0_1782_30644">
<rect width="20" height="17.8947" fill="white" transform="translate(5 6.55249)"/>
</clipPath>
</defs>
</svg>
