<svg width="30" height="30" viewBox="0 0 30 30" fill="none" xmlns="http://www.w3.org/2000/svg">
<path d="M15 30C23.2843 30 30 23.2843 30 15C30 6.71573 23.2843 0 15 0C6.71573 0 0 6.71573 0 15C0 23.2843 6.71573 30 15 30Z" fill="#E84142"/>
<path d="M20.2915 15.3898C20.8111 14.4921 21.6497 14.4921 22.1694 15.3898L25.4056 21.0709C25.9253 21.9685 25.5001 22.7008 24.4607 22.7008H17.9411C16.9135 22.7008 16.4883 21.9685 16.9962 21.0709L20.2915 15.3898ZM14.0316 4.45277C14.5513 3.55513 15.3781 3.55513 15.8978 4.45277L16.6182 5.75198L18.319 8.74017C18.7324 9.59056 18.7324 10.5945 18.319 11.4449L12.6143 21.3307C12.0946 22.1339 11.2324 22.6417 10.2757 22.7008H5.53948C4.50011 22.7008 4.07492 21.9803 4.5946 21.0709L14.0316 4.45277Z" fill="white"/>
</svg>
