<svg width="30" height="31" viewBox="0 0 30 31" fill="none" xmlns="http://www.w3.org/2000/svg">
<circle cx="15" cy="15.25" r="15" fill="#FF0000"/>
<path fill-rule="evenodd" clip-rule="evenodd" d="M18.282 18.4262C18.4093 18.4262 18.5345 18.4594 18.645 18.5225L22.9685 20.9881C23.0564 21.0382 23.0871 21.1501 23.037 21.238C23.0043 21.2952 22.9436 21.3305 22.8778 21.3305H7.12079C7.0196 21.3305 6.93755 21.2484 6.93755 21.1473C6.93755 21.0815 6.97287 21.0207 7.03003 20.9881L11.3535 18.5225C11.4641 18.4594 11.5893 18.4262 11.7166 18.4262H18.282ZM15.5501 7.16968C15.6143 7.16968 15.6739 7.20332 15.707 7.25833L23.379 19.988C23.4312 20.0748 23.4033 20.1874 23.3166 20.2396C23.2598 20.2738 23.1889 20.2746 23.1313 20.2418L18.6938 17.7114C18.5849 17.6493 18.4938 17.5603 18.4291 17.453L15.472 12.5455C15.4032 12.4313 15.3669 12.3005 15.3669 12.1672V7.35292C15.3669 7.25173 15.4489 7.16968 15.5501 7.16968ZM14.5431 7.19605C14.5981 7.22918 14.6317 7.28873 14.6317 7.353V12.1671C14.6317 12.3005 14.5954 12.4313 14.5265 12.5455L11.5688 17.453C11.5041 17.5603 11.4129 17.6493 11.3041 17.7114L6.86875 20.241C6.78084 20.2911 6.66894 20.2605 6.61881 20.1726C6.58591 20.115 6.58677 20.0441 6.62104 19.9872L14.2916 7.25841C14.3437 7.17171 14.4564 7.14381 14.5431 7.19605Z" fill="white"/>
</svg>
