<svg width="30" height="30" viewBox="0 0 30 30" fill="none" xmlns="http://www.w3.org/2000/svg">
<circle cx="15" cy="15" r="15" fill="#F3BA2F"/>
<path fill-rule="evenodd" clip-rule="evenodd" d="M15.003 10.0697L11.5085 13.5642L9.47147 11.5315L15.003 6L20.5345 11.5358L18.5018 13.5685L15.003 10.0697ZM8.03561 12.9673L6.00293 15L8.03561 17.0327L10.0683 15L8.03561 12.9673ZM15.003 19.9304L11.5085 16.4359L9.46714 18.4642L9.47147 18.4686L15.003 24.0001L20.5388 18.4642L18.5018 16.4316L15.003 19.9304ZM21.966 12.9673L19.9333 15L21.966 17.0327L23.9987 15L21.966 12.9673ZM15.0026 12.937L17.0656 15L15.0026 17.0629L12.9397 15.0043L12.9375 15.0021L13.2986 14.641L13.4759 14.4637L15.0026 12.937ZM12.9375 15.0021L12.9353 15V15.0043L12.9375 15.0021Z" fill="white"/>
</svg>
