<svg width="30" height="30" viewBox="0 0 30 30" fill="none" xmlns="http://www.w3.org/2000/svg">
<circle cx="15" cy="15" r="15" fill="#FF9204"/>
<path d="M20.9686 13.3833C21.2183 11.6496 19.9475 10.7175 18.2099 10.0958L18.7736 7.74718L17.3973 7.3909L16.8486 9.6776C16.4868 9.58395 16.1152 9.49559 15.7459 9.40805L16.2986 7.10628L14.9232 6.75L14.3591 9.09777C14.0596 9.02693 13.7657 8.9569 13.4803 8.8832L13.4819 8.87587L11.5839 8.38359L11.2178 9.9105C11.2178 9.9105 12.2389 10.1536 12.2174 10.1686C12.7747 10.3132 12.8755 10.6963 12.8586 11.0001L12.2166 13.6757C12.255 13.6858 12.3048 13.7005 12.3596 13.7233C12.3138 13.7115 12.2648 13.6985 12.2142 13.6858L11.3142 17.4339C11.246 17.6098 11.0732 17.8736 10.6835 17.7735C10.6973 17.7942 9.68322 17.5141 9.68322 17.5141L9 19.1506L10.7909 19.6143C11.1241 19.701 11.4506 19.7918 11.7721 19.8774L11.2025 22.2528L12.5772 22.6091L13.1412 20.2589C13.5168 20.3647 13.8813 20.4625 14.238 20.5545L13.6759 22.8937L15.0521 23.25L15.6217 20.879C17.9684 21.3403 19.7331 21.1543 20.4759 18.9494C21.0745 17.1741 20.4461 16.1501 19.2114 15.4823C20.1106 15.2669 20.7879 14.6525 20.9686 13.3833ZM17.8242 17.9636C17.3989 19.7389 14.5214 18.7792 13.5885 18.5386L14.3442 15.3915C15.2771 15.6334 18.2687 16.1122 17.8242 17.9636ZM18.2499 13.3577C17.8618 14.9725 15.4668 14.1521 14.6899 13.9509L15.3751 11.0966C16.152 11.2978 18.654 11.6732 18.2499 13.3577Z" fill="white"/>
</svg>
