<svg width="30" height="31" viewBox="0 0 30 31" fill="none" xmlns="http://www.w3.org/2000/svg">
<g clip-path="url(#clip0_1782_30685)">
<path d="M15 30.5C23.3125 30.5 30 23.8125 30 15.5C30 7.18745 23.3125 0.5 15 0.5C6.68745 0.5 0 7.18745 0 15.5C0 23.8125 6.68745 30.5 15 30.5Z" fill="#F0B90B"/>
<path d="M14.9977 4.8208L17.6268 7.52235L11.0066 14.165L8.37757 11.527L14.9977 4.8208Z" fill="white"/>
<path d="M18.9888 8.82545L21.6179 11.527L11.0066 22.1743L8.37757 19.5363L18.9888 8.82545Z" fill="white"/>
<path d="M7.01553 12.8301L9.64458 15.5317L7.01553 18.1696L4.38647 15.5317L7.01553 12.8301Z" fill="white"/>
<path d="M22.9799 12.8301L25.6089 15.5317L14.9977 26.1789L12.3687 23.541L22.9799 12.8301Z" fill="white"/>
</g>
<defs>
<clipPath id="clip0_1782_30685">
<rect width="30" height="30" fill="white" transform="translate(0 0.5)"/>
</clipPath>
</defs>
</svg>
