<svg width="30" height="30" viewBox="0 0 30 30" fill="none" xmlns="http://www.w3.org/2000/svg">
<g clip-path="url(#clip0_1527_29519)">
<path d="M15 30C23.2843 30 30 23.2843 30 15C30 6.71573 23.2843 0 15 0C6.71573 0 0 6.71573 0 15C0 23.2843 6.71573 30 15 30Z" fill="#D8B14E"/>
<path fill-rule="evenodd" clip-rule="evenodd" d="M10.1339 7.27661C7.36223 7.27661 5.05249 9.54016 5.05249 12.358C5.05249 15.1759 7.26984 17.4857 10.0877 17.4857C12.9056 17.4857 15.2154 15.2683 15.2154 12.4504C15.2154 9.58636 12.998 7.27661 10.1339 7.27661ZM7.22365 12.4042C7.22365 10.7874 8.51711 9.49397 10.1339 9.49397C11.7507 9.49397 13.0442 10.7412 13.0904 12.4042C13.0904 14.0673 11.7507 15.3607 10.1339 15.3607C8.51711 15.3607 7.22365 14.0211 7.22365 12.4042ZM20.6664 13.3743C17.8485 13.3743 15.5849 15.6841 15.5849 18.502C15.5849 21.2737 17.8485 23.5834 20.6202 23.5834C23.4381 23.6296 25.7478 21.3199 25.7478 18.502C25.7478 15.6841 23.4842 13.3743 20.6664 13.3743ZM20.6664 21.4122C19.0495 21.3661 17.7561 20.0726 17.7561 18.4558C17.7561 16.839 19.0957 15.5455 20.6664 15.5455C22.237 15.4993 23.6228 16.8851 23.6228 18.4558C23.669 20.0264 22.237 21.4122 20.6664 21.4122ZM18.68 12.7276L16.8784 13.6977C15.8621 12.2195 16.2317 9.72494 17.7561 8.43148C19.4191 6.95325 21.9136 6.95325 23.5304 8.38529C25.0549 9.77114 25.5168 12.2195 24.4543 13.6977C24.2542 13.5899 24.0591 13.4821 23.8641 13.3743C23.474 13.1588 23.0839 12.9432 22.6527 12.7276C23.1147 11.5265 22.8837 10.5103 21.775 9.81733C21.0359 9.35538 20.0196 9.40158 19.3267 9.95592C18.5414 10.5103 18.3104 11.388 18.68 12.7276ZM7.31604 19.1025H6.85409C6.71551 19.1025 6.53073 19.1025 6.48453 19.0563C5.884 19.0563 5.8378 19.1487 5.93019 19.7492C6.29975 22.0128 8.10135 23.5372 10.2725 23.5372C12.4437 23.5372 14.2453 21.9204 14.5686 19.703C14.6148 19.2873 14.5224 19.0563 14.0605 19.1025C13.6909 19.1487 13.3676 19.1487 12.998 19.1025C12.5823 19.0563 12.3975 19.1949 12.3051 19.6568C12.1203 20.6731 11.1964 21.3661 10.1801 21.3661C9.16384 21.3661 8.23994 20.7193 8.05516 19.703C7.96277 19.1949 7.77799 19.0563 7.31604 19.1025Z" fill="#252525"/>
</g>
<defs>
<clipPath id="clip0_1527_29519">
<rect width="30" height="30" fill="white"/>
</clipPath>
</defs>
</svg>
