<svg width="30" height="30" viewBox="0 0 30 30" fill="none" xmlns="http://www.w3.org/2000/svg">
<circle cx="15" cy="15" r="15" fill="#FFBC00"/>
<path fill-rule="evenodd" clip-rule="evenodd" d="M23.9619 12.5149H22.0358C20.9755 9.78926 18.1243 7.92041 14.3642 7.92041H8.18033V12.5149H6.03247V14.1632H8.18033V15.8918H6.03247V17.5402H8.18033V22.0795H14.3642C18.081 22.0795 20.9106 20.2257 21.998 17.5402H23.9619V15.8918H22.4308C22.4687 15.6012 22.4903 15.3006 22.4903 14.9999V14.9599C22.4903 14.6893 22.4741 14.4238 22.447 14.1632H23.9673V12.5149H23.9619ZM9.91157 9.38842H14.3642C17.1234 9.38842 19.1739 10.646 20.1207 12.5099H9.91157V9.38842ZM14.3642 20.5964H9.91157V17.5352H20.1099C19.1576 19.3689 17.1126 20.5964 14.3642 20.5964ZM20.6995 15.035C20.6995 15.3256 20.6779 15.6112 20.6346 15.8868H9.91157V14.1582H20.64C20.6779 14.4288 20.6995 14.7094 20.6995 14.9949V15.035Z" fill="white"/>
</svg>
