<svg width="30" height="30" viewBox="0 0 30 30" fill="none" xmlns="http://www.w3.org/2000/svg">
<path d="M15 30C23.2843 30 30 23.2843 30 15C30 6.71573 23.2843 0 15 0C6.71573 0 0 6.71573 0 15C0 23.2843 6.71573 30 15 30Z" fill="#3A4560"/>
<path fill-rule="evenodd" clip-rule="evenodd" d="M14.9591 4.97217L21.793 8.89075L19.1761 10.4049L14.959 7.99827L13.3931 8.89343L17.5335 11.3118L14.9605 12.8636L10.756 10.404L8.8731 11.4342V21.3888L6.18506 19.8799V9.986L14.9591 4.97217ZM23.8149 9.82422V12.8018L15.1169 17.7866L13.2165 16.6773V20.9698L15.1165 22.0333L23.8149 17.0309V20.0434L15.1177 25.0278L10.6331 22.4515V12.2146L15.1182 14.7911L23.8149 9.82422Z" fill="#616E8B"/>
</svg>
