<svg width="30" height="31" viewBox="0 0 30 31" fill="none" xmlns="http://www.w3.org/2000/svg">
<circle cx="15" cy="15.5" r="15" fill="#E6007A"/>
<path d="M15.0004 8.14077C17.5259 8.14077 19.5733 6.95018 19.5733 5.48152C19.5733 4.01285 17.5259 2.82227 15.0004 2.82227C12.4748 2.82227 10.4275 4.01285 10.4275 5.48152C10.4275 6.95018 12.4748 8.14077 15.0004 8.14077Z" fill="white"/>
<path d="M15.0004 28.1778C17.5259 28.1778 19.5733 26.9872 19.5733 25.5185C19.5733 24.0498 17.5259 22.8593 15.0004 22.8593C12.4748 22.8593 10.4275 24.0498 10.4275 25.5185C10.4275 26.9872 12.4748 28.1778 15.0004 28.1778Z" fill="white"/>
<path d="M8.62771 11.8218C9.89048 9.63496 9.88229 7.26647 8.6094 6.53164C7.33651 5.79681 5.28094 6.97391 4.01816 9.16076C2.75539 11.3476 2.76358 13.7161 4.03647 14.4509C5.30936 15.1858 7.36493 14.0087 8.62771 11.8218Z" fill="white"/>
<path d="M25.9806 21.8391C27.2434 19.6523 27.2359 17.2842 25.9639 16.5498C24.6919 15.8155 22.637 16.993 21.3742 19.1799C20.1114 21.3667 20.1189 23.7348 21.391 24.4691C22.663 25.2035 24.7179 24.026 25.9806 21.8391Z" fill="white"/>
<path d="M8.61004 24.4685C9.88293 23.7337 9.89112 21.3652 8.62834 19.1783C7.36556 16.9915 5.31 15.8144 4.03711 16.5492C2.76422 17.2841 2.75602 19.6525 4.0188 21.8394C5.28158 24.0262 7.33715 25.2033 8.61004 24.4685Z" fill="white"/>
<path d="M25.965 14.4515C27.237 13.7172 27.2445 11.3491 25.9817 9.16224C24.7189 6.97539 22.6641 5.79789 21.392 6.53222C20.12 7.26656 20.1125 9.63464 21.3753 11.8215C22.6381 14.0083 24.6929 15.1858 25.965 14.4515Z" fill="white"/>
</svg>
