<svg width="30" height="31" viewBox="0 0 30 31" fill="none" xmlns="http://www.w3.org/2000/svg">
<g clip-path="url(#clip0_1782_30360)">
<path d="M15 30.5C23.2843 30.5 30 23.7843 30 15.5C30 7.21573 23.2843 0.5 15 0.5C6.71573 0.5 0 7.21573 0 15.5C0 23.7843 6.71573 30.5 15 30.5Z" fill="url(#paint0_linear_1782_30360)"/>
<path d="M23.9746 2.89396C19.5346 3.72416 15.5119 5.03836 13.1586 9.55051H27C26.6281 10.4614 26.2383 11.2432 25.9908 12.0697C25.7145 12.9954 25.2398 13.2821 24.2855 13.2622C20.5164 13.184 16.7436 13.23 12.9733 13.2039C12.4663 13.2039 12.2558 13.3218 12.2833 13.884C12.3299 14.8283 12.3144 15.7764 12.3299 16.7221C12.3383 17.2184 12.5488 17.3971 13.0677 17.3922C16.3418 17.3599 19.616 17.3736 22.8912 17.3711H23.6458C23.1484 18.5674 22.6891 19.6966 22.1965 20.8036C22.1379 20.9277 21.8378 20.9922 21.6392 20.9934C19.2979 21.0046 16.9565 21.0009 14.6139 20.9934H13.784C14.1798 21.5134 14.4393 21.913 14.755 22.258C16.6599 24.3341 19.0934 25.3939 21.7158 26.033C22.9044 26.3234 24.1265 26.4624 25.3761 26.6771C25.3189 26.7817 25.2467 26.8767 25.1621 26.9588C24.0858 27.7257 23.0276 28.5249 21.9107 29.2235C21.5002 29.4536 21.0303 29.5434 20.5678 29.4804C16.9553 28.9753 13.6728 27.6822 11.2023 24.7709C10.4143 23.8427 9.8092 22.7271 9.23282 21.6338C8.96855 21.1374 8.7234 20.9637 8.19963 20.981C7.03014 21.0207 5.85827 20.9934 4.68759 20.9934H4.00715C4.49743 19.7885 4.93869 18.6728 5.4182 17.5746C5.47201 17.4505 5.74468 17.3859 5.91807 17.381C6.58891 17.3586 7.26094 17.3723 7.97364 17.3723V13.2225H4C4.49865 12.0051 4.94108 10.8895 5.42299 9.79249C5.4768 9.6684 5.74943 9.60262 5.92163 9.5989C6.69531 9.5778 7.47619 9.57408 8.24389 9.5989C8.56796 9.60758 8.73894 9.50832 8.85972 9.17946C10.6199 4.39182 14.1619 1.80068 18.7849 0.548546C18.9141 0.501711 19.0525 0.488495 19.1879 0.510069C20.9107 0.993601 22.5333 1.80165 23.9746 2.89396Z" fill="white"/>
</g>
<defs>
<linearGradient id="paint0_linear_1782_30360" x1="30" y1="0.499998" x2="1.78814e-06" y2="30.5" gradientUnits="userSpaceOnUse">
<stop stop-color="#B030EC"/>
<stop offset="1" stop-color="#15BCFF"/>
</linearGradient>
<clipPath id="clip0_1782_30360">
<rect y="0.5" width="30" height="30" rx="15" fill="white"/>
</clipPath>
</defs>
</svg>
