<svg width="30" height="30" viewBox="0 0 30 30" fill="none" xmlns="http://www.w3.org/2000/svg">
<path d="M15 30C23.2843 30 30 23.2843 30 15C30 6.71573 23.2843 0 15 0C6.71573 0 0 6.71573 0 15C0 23.2843 6.71573 30 15 30Z" fill="#13B5EC"/>
<path fill-rule="evenodd" clip-rule="evenodd" d="M16.4 12.05L20.6 9.6V14.5L16.4 12.05ZM20.6 22.55L15 25.8167L9.4 22.55V16.8333L15 20.1L20.6 16.8333V22.55ZM9.4 9.6L13.6 12.05L9.4 14.5V9.6ZM15.7 13.2167L19.9 15.6667L15.7 18.1167V13.2167ZM14.3 18.1167L10.1 15.6667L14.3 13.2167V18.1167ZM19.9 8.43333L15 11.2333L10.1 8.43333L15 5.51667L19.9 8.43333ZM8 7.96667V23.25L15 27.2167L22 23.25V7.96667L15 4L8 7.96667Z" fill="white"/>
</svg>
