<svg width="30" height="30" viewBox="0 0 30 30" fill="none" xmlns="http://www.w3.org/2000/svg">
<circle cx="15" cy="15" r="15" fill="#8247E5"/>
<path d="M20.1436 12.1958C19.7781 11.9941 19.3081 11.9941 18.8903 12.1958L15.9661 13.8605L13.9817 14.9199L11.1097 16.5846C10.7441 16.7864 10.2742 16.7864 9.8564 16.5846L7.61097 15.273C7.24543 15.0712 6.98433 14.6677 6.98433 14.2136V11.6914C6.98433 11.2878 7.19321 10.8843 7.61097 10.632L9.8564 9.37092C10.2219 9.16914 10.6919 9.16914 11.1097 9.37092L13.3551 10.6825C13.7206 10.8843 13.9817 11.2878 13.9817 11.7418V13.4065L15.9661 12.2967V10.5816C15.9661 10.178 15.7572 9.77448 15.3394 9.52226L11.1619 7.15134C10.7963 6.94955 10.3264 6.94955 9.90862 7.15134L5.62663 9.5727C5.20888 9.77448 5 10.178 5 10.5816V15.3234C5 15.727 5.20888 16.1306 5.62663 16.3828L9.8564 18.7537C10.2219 18.9555 10.6919 18.9555 11.1097 18.7537L13.9817 17.1395L15.9661 16.0297L18.8381 14.4154C19.2037 14.2137 19.6736 14.2137 20.0914 14.4154L22.3368 15.6766C22.7023 15.8783 22.9634 16.2819 22.9634 16.7359V19.2582C22.9634 19.6617 22.7546 20.0653 22.3368 20.3175L20.1436 21.5786C19.7781 21.7804 19.3081 21.7804 18.8903 21.5786L16.6449 20.3175C16.2794 20.1157 16.0183 19.7122 16.0183 19.2582V17.6439L14.0339 18.7537V20.4184C14.0339 20.822 14.2428 21.2255 14.6606 21.4777L18.8903 23.8487C19.2559 24.0504 19.7258 24.0504 20.1436 23.8487L24.3734 21.4777C24.7389 21.276 25 20.8724 25 20.4184V15.6261C25 15.2226 24.7911 14.819 24.3734 14.5668L20.1436 12.1958Z" fill="white"/>
</svg>
