<svg width="30" height="30" viewBox="0 0 30 30" fill="none" xmlns="http://www.w3.org/2000/svg">
<circle cx="15" cy="15" r="15" fill="#F00500"/>
<g clip-path="url(#clip0_1436_29535)">
<path d="M20.9656 15.7423C20.9553 15.7965 20.7942 15.9592 20.6331 16.0779C20.1599 16.4203 19.3131 16.7389 18.4526 16.8914C17.9623 16.9796 17.4721 16.9931 17.3246 16.9219C17.2287 16.8745 17.2149 16.8372 17.2492 16.7152C17.3212 16.4609 17.5544 16.183 17.9178 15.9219C18.1029 15.7897 18.8537 15.3389 19.2034 15.1491C19.7794 14.8372 20.2456 14.6508 20.5611 14.6067C20.6605 14.5931 20.7805 14.5897 20.8182 14.6067C20.8799 14.6304 20.9485 14.8101 20.9759 15.027C20.9896 15.1423 20.9827 15.6508 20.9656 15.7423Z" fill="black"/>
<path d="M12.8882 16.8643C12.8677 16.9049 12.7648 16.949 12.6482 16.966C12.5317 16.9829 12.1751 16.9727 11.9728 16.949C11.246 16.8541 10.4746 16.6338 9.91238 16.3626C9.59696 16.21 9.37069 16.0575 9.20269 15.8914L9.1067 15.7931L9.09642 15.6643C9.07927 15.4405 9.0827 15.088 9.11013 14.9626C9.12727 14.8575 9.16498 14.7558 9.21641 14.6643C9.24384 14.6304 9.24384 14.6304 9.36726 14.6304C9.51811 14.6304 9.64496 14.6541 9.85066 14.7185C10.2724 14.8473 10.8998 15.1592 11.6643 15.6134C12.2951 15.9863 12.5317 16.1694 12.7134 16.4202C12.8368 16.5761 12.9191 16.7965 12.8882 16.8643Z" fill="black"/>
<path d="M17.7428 21.583C17.7428 21.5931 17.7016 21.7558 17.6502 21.9491C17.5988 22.1423 17.5576 22.2982 17.5576 22.305C17.5199 22.3084 17.4856 22.3118 17.4479 22.3084H17.3382L17.1874 22.6609C17.1051 22.8541 17.0297 23.0338 17.0194 23.0609L16.9988 23.1084L16.9268 22.9931L16.8548 22.8779V21.9389L16.8274 21.9457C16.7691 21.9592 16.3543 22.0135 16.1726 22.0304C15.4217 22.105 14.6675 22.088 13.9201 21.983C13.8001 21.966 13.6973 21.9524 13.6938 21.9558C13.6904 21.9592 13.6938 22.1762 13.7007 22.444L13.711 22.9253L13.6527 23.0135C13.6218 23.0609 13.591 23.1016 13.591 23.105C13.5807 23.1152 13.5464 23.0609 13.4676 22.905C13.3818 22.7423 13.3201 22.5694 13.2756 22.3897L13.2516 22.2914L13.1453 22.2982L13.039 22.3084L13.0116 22.183C12.9979 22.1152 12.9807 22.0101 12.9739 21.9524L12.9636 21.844L12.8744 21.766C12.823 21.7219 12.7716 21.6779 12.7613 21.6711C12.7442 21.6575 12.7373 21.6338 12.7373 21.6135V21.5728L13.1659 21.5762L13.5944 21.5796L13.6081 21.6236L13.6218 21.6677L13.7693 21.6745C13.8515 21.6779 14.1121 21.6846 14.3452 21.6914L14.7738 21.7016L14.8835 21.5321L14.9966 21.3626H15.1406L15.1372 21.0101L15.1338 20.6575L14.9452 20.5762C14.3384 20.3118 13.9818 20.0101 13.8481 19.644C13.8207 19.5694 13.8207 19.5423 13.8138 19.2033C13.8104 18.8677 13.8104 18.8372 13.8344 18.7626C13.8824 18.5931 14.0161 18.4609 14.1875 18.4169C14.2458 18.3999 14.4001 18.3999 15.2092 18.3999L16.1623 18.4033L16.2686 18.4541C16.3954 18.5152 16.4537 18.5592 16.5257 18.6541C16.608 18.7626 16.632 18.8474 16.632 19.0541C16.632 19.3491 16.6114 19.6033 16.5805 19.705C16.536 19.844 16.4674 19.9762 16.3817 20.0948C16.2103 20.3118 15.8983 20.5287 15.6137 20.627L15.5315 20.6575L15.5349 21.0135L15.5383 21.3694L15.6137 21.3762L15.6892 21.383L15.792 21.5355L15.8914 21.688H16.3508C16.6045 21.688 16.8274 21.6914 16.848 21.6948C16.8822 21.7016 16.8891 21.6982 16.9234 21.6406L16.9645 21.5796H17.3588C17.6536 21.566 17.7428 21.5728 17.7428 21.583Z" fill="black"/>
<path d="M15.9326 22.556C15.8675 22.5932 15.8229 22.6102 15.8126 22.6034C15.8023 22.6 15.7543 22.5594 15.7029 22.5221L15.6103 22.4475L15.5143 22.5492C15.3052 22.7729 15.2984 22.7831 15.2366 22.7865C15.1406 22.7966 15.1201 22.7797 15.0035 22.6068C14.9418 22.5187 14.8938 22.4441 14.8938 22.4441C14.8938 22.4441 14.8492 22.4373 14.7978 22.4339L14.7018 22.4238L14.6572 22.5153L14.6127 22.6068L14.5338 22.5831C14.4721 22.5627 14.4104 22.539 14.3521 22.5119L14.2493 22.461V22.2678L15.1612 22.2712L16.0732 22.2746L16.0766 22.3661C16.08 22.4746 16.0835 22.4712 15.9326 22.556Z" fill="black"/>
<path d="M24.5037 18.4201C24.5003 18.4066 24.5003 18.3828 24.4968 18.3455C23.674 18.2574 21.3256 18.2032 19.1451 19.9828C19.1451 19.9828 18.4423 16.7964 15.151 16.7964C11.8598 16.7964 10.6393 19.9828 10.6393 19.9828C8.79479 18.0201 6.32635 18.1625 5.43497 18.2913C5.43497 18.3116 5.43154 18.3354 5.43154 18.3557C5.40411 18.8472 5.41782 19.0811 5.50011 19.3896C5.75724 20.3557 6.5492 21.4201 7.79027 22.4642C9.82331 24.1727 12.5797 25.4066 14.6676 25.5489C16.8447 25.6947 20.0571 24.4371 22.1964 22.5998C22.5324 22.3049 22.8478 21.993 23.1426 21.6608C23.3552 21.4167 23.6706 20.9964 23.6466 20.9964C23.6397 20.9964 23.6466 20.9896 23.6603 20.9828C23.6706 20.976 23.6809 20.9659 23.674 20.9591C23.6706 20.9557 23.6774 20.9455 23.6877 20.9421C23.698 20.9388 23.7049 20.932 23.7014 20.9252C23.698 20.9184 23.7014 20.9116 23.7152 20.9083C23.7254 20.9049 23.7289 20.8947 23.7254 20.8879C23.722 20.8811 23.7254 20.8744 23.7323 20.8744C23.7392 20.8744 23.746 20.8642 23.746 20.8574C23.746 20.8506 23.7529 20.8405 23.7597 20.8405C23.7666 20.8405 23.7734 20.8337 23.7734 20.8269C23.7837 20.7998 23.8009 20.7727 23.818 20.7489C23.8694 20.671 24.0751 20.3083 24.1026 20.2472C24.298 19.8099 24.4214 19.4201 24.4797 19.0303C24.5003 18.8438 24.5174 18.5015 24.5037 18.4201ZM15.9327 22.5557C15.8676 22.593 15.823 22.6099 15.8127 22.6032C15.8024 22.5998 15.7544 22.5591 15.703 22.5218L15.6104 22.4472L15.5144 22.5489C15.3053 22.7727 15.2985 22.7828 15.2367 22.7862C15.1407 22.7964 15.1202 22.7794 15.0036 22.6066C14.9419 22.5184 14.8939 22.4438 14.8939 22.4438C14.8939 22.4438 14.8493 22.4371 14.7979 22.4337L14.7019 22.4235L14.6573 22.515L14.6128 22.6066L14.5339 22.5828C14.4722 22.5625 14.4105 22.5388 14.3522 22.5116L14.2494 22.4608V22.2676L15.1613 22.271L16.0733 22.2744L16.0767 22.3659C16.0801 22.4744 16.0836 22.471 15.9327 22.5557ZM17.6469 21.9455C17.5955 22.1388 17.5543 22.2947 17.5543 22.3015C17.5166 22.3049 17.4823 22.3083 17.4446 22.3049H17.3349L17.1875 22.6608C17.1052 22.854 17.0298 23.0337 17.0195 23.0608L16.9989 23.1083L16.9269 22.993L16.8549 22.8777V21.9388L16.8275 21.9455C16.7692 21.9591 16.3544 22.0133 16.1727 22.0303C15.4219 22.1049 14.6676 22.0879 13.9202 21.9828C13.8002 21.9659 13.6974 21.9523 13.694 21.9557C13.6905 21.9591 13.694 22.176 13.7008 22.4438L13.7111 22.9252L13.6528 23.0133C13.622 23.0608 13.5911 23.1015 13.5911 23.1049C13.5808 23.115 13.5465 23.0608 13.4677 22.9049C13.382 22.7422 13.3203 22.5693 13.2757 22.3896L13.2517 22.2913L13.1454 22.2981L13.0391 22.3083L13.0117 22.1828C12.998 22.115 12.9809 22.0099 12.974 21.9523L12.9637 21.8438L12.8746 21.7659C12.8232 21.7218 12.7717 21.6777 12.7614 21.671C12.7443 21.6574 12.7374 21.6337 12.7374 21.6133V21.5727L13.166 21.576L13.5945 21.5794L13.6083 21.6235L13.622 21.6676L13.7694 21.6744C13.8517 21.6777 14.1122 21.6845 14.3454 21.6913L14.7739 21.7015L14.8836 21.532L14.9968 21.3625H15.1407L15.1373 21.0099L15.1339 20.6574L14.9453 20.576C14.3385 20.3116 13.982 20.0099 13.8482 19.6438C13.8208 19.5693 13.8208 19.5421 13.814 19.2032C13.8105 18.8676 13.8105 18.8371 13.8345 18.7625C13.8825 18.593 14.0162 18.4608 14.1877 18.4167C14.2459 18.3998 14.4002 18.3998 15.2093 18.3998L16.1624 18.4032L16.2687 18.454C16.3955 18.515 16.4538 18.5591 16.5258 18.654C16.6081 18.7625 16.6321 18.8472 16.6321 19.054C16.6321 19.3489 16.6115 19.6032 16.5807 19.7049C16.5361 19.8438 16.4675 19.976 16.3818 20.0947C16.2104 20.3116 15.8984 20.5286 15.6139 20.6269L15.5316 20.6574L15.535 21.0133L15.5384 21.3693L15.6139 21.376L15.6893 21.3828L15.7921 21.5354L15.8916 21.6879H16.351C16.6047 21.6879 16.8275 21.6913 16.8481 21.6947C16.8824 21.7015 16.8892 21.6981 16.9235 21.6405L16.9647 21.5794H17.3589C17.664 21.5794 17.7532 21.5828 17.7532 21.593C17.7429 21.5896 17.6983 21.7557 17.6469 21.9455Z" fill="white"/>
<path d="M24.4761 18.0744C24.4693 17.9218 24.4556 17.7083 24.4453 17.6032C24.2979 16.0642 23.9002 14.8066 23.1459 13.4744C23.1151 13.4235 23.0876 13.3727 23.0705 13.332C23.0636 13.3218 23.0602 13.3117 23.0568 13.3049C23.1631 12.9896 23.5985 11.671 23.9447 10.1625C24.4144 8.11506 24.7127 5.72184 23.8007 5.00319C23.8007 5.00319 22.2237 4.88794 20.1118 6.9354C19.5392 7.5015 19.0147 8.11506 18.5484 8.76929L18.401 8.72184C17.5508 8.44726 16.6697 8.27777 15.7817 8.22014C15.5143 8.1998 14.5166 8.1998 14.191 8.22014C13.207 8.28455 12.4528 8.43031 11.5957 8.72523C11.5614 8.73879 11.5305 8.74895 11.4997 8.75912C11.0163 8.10828 10.478 7.49811 9.88489 6.93879C7.68729 4.88116 6.05195 4.9998 6.05195 4.9998C5.08514 5.74218 5.41427 8.24387 5.91481 10.3591C6.24394 11.7591 6.64849 12.9896 6.79934 13.4337C6.78905 13.4574 6.77534 13.4845 6.76162 13.5083C5.96281 15.1083 5.53083 16.6506 5.42798 18.2913C6.32279 18.1625 8.7878 18.0167 10.6357 19.9828C10.6357 19.9828 11.8562 16.7964 15.1475 16.7964C18.4387 16.7964 19.1416 19.9828 19.1416 19.9828C21.322 18.2032 23.6705 18.2608 24.4933 18.3456C24.4898 18.2778 24.483 18.1761 24.4761 18.0744ZM7.4473 12.1557C7.4473 12.1557 6.16508 8.98624 6.49421 7.17607C6.54906 6.87099 6.65192 6.60319 6.81305 6.3998C6.81305 6.3998 8.26669 6.54218 10.6117 9.11845C10.6117 9.11845 10.166 9.33201 9.56948 9.78624C9.56948 9.78624 9.56605 9.78963 9.56262 9.78963C8.91465 10.2812 8.08498 11.0608 7.4473 12.1557ZM12.8882 16.8642C12.8676 16.9049 12.7647 16.949 12.6482 16.9659C12.5316 16.9829 12.1751 16.9727 11.9728 16.949C11.246 16.854 10.4746 16.6337 9.91232 16.3625C9.59691 16.21 9.37063 16.0574 9.20264 15.8913L9.10665 15.793L9.09636 15.6642C9.07922 15.4405 9.08265 15.0879 9.11007 14.9625C9.12722 14.8574 9.16493 14.7557 9.21635 14.6642C9.24378 14.6303 9.24378 14.6303 9.3672 14.6303C9.51805 14.6303 9.6449 14.654 9.85061 14.7184C10.2723 14.8473 10.8997 15.1591 11.6642 15.6134C12.2951 15.9862 12.5316 16.1693 12.7133 16.4201C12.8367 16.5761 12.919 16.7964 12.8882 16.8642ZM20.9655 15.7422C20.9552 15.7964 20.794 15.9591 20.6329 16.0778C20.1598 16.4201 19.313 16.7388 18.4524 16.8913C17.9622 16.9795 17.4719 16.993 17.3245 16.9218C17.2285 16.8744 17.2148 16.8371 17.2491 16.7151C17.3211 16.4608 17.5542 16.1829 17.9176 15.9218C18.1027 15.7896 18.8536 15.3388 19.2033 15.149C19.7792 14.8371 20.2455 14.6506 20.5609 14.6066C20.6603 14.593 20.7803 14.5896 20.818 14.6066C20.8797 14.6303 20.9483 14.81 20.9757 15.0269C20.9895 15.1422 20.9826 15.6506 20.9655 15.7422ZM20.3963 9.78624L20.3895 9.78285C19.8135 9.32862 19.3815 9.11506 19.3815 9.11506C21.6477 6.53879 23.0499 6.39641 23.0499 6.39641C23.2042 6.60319 23.3036 6.8676 23.3585 7.17268C23.6773 8.98285 22.4397 12.1557 22.4397 12.1557C21.922 11.2439 21.226 10.4371 20.3963 9.78624Z" fill="#FFA409"/>
<path d="M23.362 7.17276C23.0945 7.13886 21.8295 7.13208 20.3964 9.78631L20.3895 9.78292C19.8136 9.32869 19.3816 9.11513 19.3816 9.11513C21.6478 6.53886 23.05 6.39648 23.05 6.39648C23.2077 6.60326 23.3071 6.86767 23.362 7.17276Z" fill="#FF9300"/>
<path d="M22.4432 12.1558C21.9221 11.2405 21.2296 10.4372 20.3965 9.78631C21.8296 7.13207 23.0912 7.13885 23.362 7.17275C23.6809 8.98631 22.4432 12.1558 22.4432 12.1558Z" fill="#FF8300"/>
<path d="M23.4135 7.18302C23.3963 7.17963 23.3792 7.17624 23.3621 7.17285L23.4135 7.18302Z" fill="#FF8300"/>
<path d="M10.6119 9.11513C10.6119 9.11513 10.1662 9.32869 9.56967 9.78292C9.56967 9.78292 9.56623 9.78631 9.56281 9.78631C8.07831 7.12869 6.7721 7.13886 6.49097 7.17276C6.54582 6.86767 6.64867 6.59987 6.80981 6.39648C6.81324 6.39648 8.26687 6.53886 10.6119 9.11513Z" fill="#FF9300"/>
<path d="M9.56605 9.78631C8.91466 10.2812 8.08499 11.0575 7.44731 12.1558C7.44731 12.1558 6.16508 8.98631 6.49421 7.17275C6.77191 7.13885 8.08156 7.13207 9.56605 9.78631Z" fill="#FF8300"/>
<path d="M6.49431 7.17285C6.47716 7.17624 6.4566 7.17963 6.43945 7.18302L6.49431 7.17285Z" fill="#FF8300"/>
<path d="M18.9735 13.915C18.9735 13.915 17.8764 13.9828 18.0136 13.1353C18.1507 12.2879 19.0078 12.1862 19.2478 12.2201C19.4878 12.254 20.4477 12.593 20.2763 13.3048C20.1049 14.0167 19.8649 13.8811 19.7278 13.915C19.5906 13.9489 18.9735 13.915 18.9735 13.915Z" fill="white"/>
<path d="M10.8827 13.915C10.8827 13.915 9.78562 13.9828 9.92275 13.1353C10.0599 12.2879 10.917 12.1862 11.157 12.2201C11.397 12.254 12.3569 12.593 12.1855 13.3048C12.0141 14.0167 11.7741 13.8811 11.6369 13.915C11.4998 13.9489 10.8827 13.915 10.8827 13.915Z" fill="white"/>
</g>
<defs>
<clipPath id="clip0_1436_29535">
<rect width="22" height="22" fill="white" transform="translate(4 5)"/>
</clipPath>
</defs>
</svg>
