<svg width="30" height="31" viewBox="0 0 30 31" fill="none" xmlns="http://www.w3.org/2000/svg">
<circle cx="15" cy="15.5" r="15" fill="url(#paint0_linear_1782_30463)"/>
<path d="M16.5589 17.233C14.6096 17.233 12.6607 17.233 10.7122 17.233C10.6347 17.2349 10.5578 17.2193 10.4864 17.1873C10.415 17.1552 10.3507 17.1074 10.2979 17.0469C9.89666 16.6023 9.4965 16.1545 9.09738 15.7037C8.67243 15.2275 8.24728 14.7515 7.82191 14.2757C7.7827 14.2325 7.75651 14.1777 7.74672 14.1184C7.73693 14.0592 7.74398 13.9981 7.76697 13.9432C7.78996 13.8882 7.82783 13.8419 7.87571 13.8101C7.92359 13.7783 7.97929 13.7626 8.03564 13.7648C11.9518 13.7648 15.868 13.7648 19.7842 13.7648C19.8566 13.7632 19.9286 13.7778 19.9954 13.8077C20.0623 13.8375 20.1225 13.882 20.1722 13.9382C20.5878 14.4004 21.0009 14.8653 21.4158 15.3288C21.7783 15.7343 22.1414 16.1392 22.5051 16.5434C22.5607 16.6061 22.6144 16.6694 22.6682 16.7334C22.7037 16.7765 22.727 16.8295 22.7351 16.8862C22.7433 16.9429 22.736 17.0009 22.7141 17.0533C22.6923 17.1057 22.6568 17.1503 22.6118 17.1818C22.5669 17.2133 22.5145 17.2304 22.4607 17.231L16.5589 17.233Z" fill="white"/>
<path d="M13.9155 22.4986C11.9574 22.4986 9.99935 22.4986 8.04126 22.4986C7.98534 22.5028 7.92956 22.4885 7.88157 22.4576C7.83358 22.4266 7.79571 22.3806 7.77317 22.3258C7.74735 22.2717 7.73834 22.2102 7.74744 22.1503C7.75654 22.0903 7.78328 22.035 7.82379 21.9924L8.66743 21.0453C9.18362 20.4673 9.6998 19.8892 10.216 19.3112C10.3241 19.1898 10.436 19.0771 10.5978 19.0444C10.6256 19.0387 10.6539 19.0356 10.6822 19.0351H22.4532C22.508 19.0319 22.5624 19.0468 22.6089 19.0778C22.6555 19.1089 22.6919 19.1545 22.7132 19.2085C22.7395 19.2615 22.7493 19.3221 22.7409 19.3814C22.7326 19.4407 22.7067 19.4956 22.6669 19.538C22.422 19.8141 22.1766 20.0898 21.9308 20.365C21.5242 20.8203 21.1171 21.2761 20.7097 21.7323C20.5322 21.9323 20.3553 22.1324 20.176 22.3272C20.1251 22.3841 20.0636 22.4291 19.9955 22.4593C19.9274 22.4895 19.8542 22.5043 19.7804 22.5026C17.8248 22.499 15.8699 22.4977 13.9155 22.4986Z" fill="white"/>
<path d="M13.9137 11.9674C11.9556 11.9674 9.99893 11.9674 8.04376 11.9674C7.98627 11.971 7.9291 11.9559 7.87986 11.924C7.83062 11.8921 7.79165 11.845 7.76811 11.7889C7.74457 11.7328 7.73759 11.6703 7.7481 11.6099C7.7586 11.5495 7.78609 11.4939 7.82691 11.4505C8.15437 11.0864 8.481 10.7211 8.80679 10.3547C9.30381 9.79847 9.80042 9.24268 10.2966 8.68733C10.3509 8.62628 10.4166 8.5781 10.4895 8.54593C10.5624 8.51375 10.6408 8.4983 10.7197 8.50058C14.6225 8.50058 18.5254 8.50058 22.4282 8.50058C22.4878 8.49525 22.5475 8.51001 22.5988 8.54278C22.6501 8.57556 22.6904 8.6247 22.7142 8.68327C22.7379 8.74184 22.7438 8.80689 22.7311 8.86924C22.7184 8.93159 22.6876 8.9881 22.6432 9.0308C22.317 9.39318 21.992 9.75645 21.6683 10.1206C21.21 10.6328 20.7536 11.1455 20.2991 11.6586C20.1835 11.7887 20.0698 11.9254 19.891 11.9567C19.8583 11.9633 19.825 11.9668 19.7917 11.9674H13.9137Z" fill="white"/>
<defs>
<linearGradient id="paint0_linear_1782_30463" x1="30" y1="0.499998" x2="1.78814e-06" y2="30.5" gradientUnits="userSpaceOnUse">
<stop stop-color="#18FB9B"/>
<stop offset="1" stop-color="#9844FE"/>
</linearGradient>
</defs>
</svg>
