<svg width="30" height="30" viewBox="0 0 30 30" fill="none" xmlns="http://www.w3.org/2000/svg">
<circle cx="15" cy="15" r="15" fill="#2BC5D4"/>
<path d="M20.439 22.6364C20.4419 17.5418 20.441 12.4482 20.44 7.35368C20.44 6.69531 19.7257 6.00189 19.0463 6.00189C16.1572 6 13.269 6 10.3808 6C9.73919 6 9.01715 6.71805 9.01618 7.35936C9.01521 12.4539 9.01327 17.5475 9.01812 22.642C9.01812 22.804 8.94058 22.9916 9.10631 23.1299C9.33601 23.3904 9.52306 23.6878 9.81576 23.8925C9.95338 24.0582 10.1453 23.9834 10.31 23.9834C13.2622 23.9891 16.2134 23.9891 19.1655 23.9862C19.3031 23.9862 19.4582 24.0365 19.5765 23.9142C19.8779 23.6907 20.1415 23.4311 20.3683 23.1346C20.503 22.985 20.439 22.8021 20.439 22.6364ZM18.5995 21.8586C18.5918 22.1116 18.4997 22.1845 18.2574 22.1845C15.9032 22.1798 13.5491 22.1769 11.1959 22.1873C10.8857 22.1883 10.8702 22.0405 10.8702 21.8084C10.8693 20.3591 10.8586 18.9097 10.8509 17.4603C10.8586 15.3668 10.8673 13.2724 10.8731 11.1788C10.8761 10.2183 10.8906 9.25774 10.8654 8.29718C10.8557 7.91448 10.9924 7.81312 11.3655 7.81596C13.1536 7.83112 14.9418 7.82259 16.7299 7.82259C17.2349 7.82259 17.7398 7.82354 18.2448 7.82164C18.5385 7.8207 18.6528 7.84533 18.6189 8.23845C18.5394 9.16112 18.5908 10.0942 18.5937 11.0235C18.5966 11.842 18.6063 12.6604 18.6121 13.4789C18.6199 15.1111 18.6131 16.7442 18.6344 18.3764C18.6509 19.5321 18.6334 20.6982 18.5995 21.8586Z" fill="white"/>
<path d="M12.3323 14.3049C13.1212 14.285 13.9111 14.2983 14.701 14.2983C15.5229 14.2983 16.3448 14.2879 17.1666 14.304C17.4535 14.3097 17.5882 14.2263 17.5805 13.9364C17.5708 13.5585 17.5689 13.1805 17.5776 12.8025C17.5834 12.5439 17.4855 12.435 17.2083 12.4501C16.8546 12.47 16.4979 12.4359 16.1451 12.4606C15.7972 12.4852 15.6411 12.3905 15.6741 12.0201C15.7061 11.6601 15.6673 11.2954 15.6867 10.9345C15.7003 10.6863 15.6033 10.5953 15.3591 10.5991C14.9569 10.6058 14.5527 10.6105 14.1505 10.5944C13.8607 10.583 13.7919 10.7242 13.7987 10.9695C13.8084 11.3001 13.7754 11.6336 13.8084 11.9613C13.8481 12.3611 13.6902 12.4672 13.2947 12.4691C12.845 12.471 12.2519 12.2379 11.9766 12.5846C11.7188 12.9086 11.9282 13.4685 11.8972 13.9222C11.8758 14.2453 12.029 14.3125 12.3323 14.3049Z" fill="white"/>
<path d="M17.5703 16.2771C17.6284 15.9152 17.4501 15.8233 17.1022 15.8281C15.7812 15.8432 14.4592 15.8347 13.1372 15.8347C11.8996 15.8347 11.8996 15.8347 11.9015 17.0349C11.9025 17.6866 11.9025 17.6866 12.6032 17.6364C12.924 17.6355 13.2458 17.6355 13.5666 17.6345C13.8147 17.6667 13.805 17.8496 13.805 18.0258C13.805 18.4198 13.8002 18.8139 13.8069 19.2089C13.8098 19.3539 13.7604 19.5557 14.0337 19.5225C14.3681 19.5225 14.7025 19.5215 15.0368 19.5215C15.1221 19.5215 15.2084 19.5215 15.2937 19.5215C15.3673 19.5206 15.44 19.5206 15.5137 19.5197C15.7967 19.5036 15.6707 19.2876 15.6765 19.1625C15.6998 18.6595 15.6998 18.1565 15.7085 17.6525C16.2871 17.6459 16.8657 17.6393 17.4433 17.6326C17.7292 17.2016 17.4976 16.7261 17.5703 16.2771Z" fill="white"/>
</svg>
