<svg width="30" height="30" viewBox="0 0 30 30" fill="none" xmlns="http://www.w3.org/2000/svg">
<circle cx="15" cy="15" r="15" fill="#5E5E5E"/>
<path d="M7.02116 6.59912C7.09274 6.61572 7.16384 6.635 7.23607 6.64845C7.66096 6.7276 8.08607 6.80543 8.51124 6.88358C8.93114 6.9608 9.35103 7.03764 9.77089 7.11491C10.1934 7.19259 10.6159 7.27061 11.0383 7.3483C11.4582 7.42556 11.8781 7.50259 12.2979 7.57986C12.7204 7.65764 13.1428 7.73551 13.5653 7.81329C13.9851 7.89056 14.405 7.96778 14.8249 8.04485C15.2448 8.12197 15.6648 8.19867 16.0846 8.2758C16.5098 8.35395 16.9348 8.43244 17.3599 8.51069C17.8086 8.59332 18.2573 8.67599 18.7059 8.75862C19.0103 8.81472 19.3145 8.87162 19.6192 8.92617C19.6684 8.93501 19.7083 8.95237 19.7453 8.98759C20.8063 9.99734 21.8682 11.0063 22.9303 12.015C22.9475 12.0314 22.9688 12.0435 22.9941 12.0619C19.8865 15.8473 16.7889 19.6204 13.6853 23.4009C13.6705 23.3671 13.6593 23.3433 13.6495 23.319C12.7468 21.0487 11.8441 18.7783 10.9415 16.5078C10.0853 14.354 9.229 12.2002 8.37289 10.0463C7.92703 8.92476 7.4816 7.80299 7.03602 6.68137C7.02521 6.65419 7.01538 6.62658 7.00513 6.59912C7.01049 6.59912 7.0158 6.59912 7.02116 6.59912ZM13.6573 20.9331C13.6628 20.9078 13.6664 20.8955 13.6679 20.8832C13.6941 20.6712 13.7202 20.4592 13.7459 20.2471C13.7803 19.9634 13.814 19.6798 13.8484 19.3962C13.8837 19.1045 13.9195 18.813 13.9547 18.5214C13.989 18.2378 14.0228 17.9541 14.057 17.6704C14.0922 17.3788 14.128 17.0873 14.1633 16.7957C14.1976 16.512 14.2316 16.2284 14.2659 15.9447C14.3012 15.6531 14.3366 15.3616 14.372 15.07C14.4072 14.781 14.4425 14.4921 14.4775 14.2032C14.5067 13.962 14.5341 13.7206 14.5654 13.4796C14.5726 13.4235 14.5584 13.3871 14.5136 13.3499C12.6158 11.7783 10.7191 10.2053 8.82222 8.63249C8.80073 8.61467 8.77877 8.5975 8.7569 8.5801C8.75173 8.58401 8.74651 8.58805 8.74134 8.59196C10.3702 12.6894 11.9991 16.7869 13.6282 20.8842C13.6335 20.8978 13.6432 20.9098 13.6573 20.9331ZM14.549 20.9272C14.6483 20.8557 21.2549 12.7987 21.2804 12.7373C19.3208 13.0921 17.3663 13.4462 15.4106 13.8004C15.1225 16.1832 14.8358 18.5552 14.549 20.9272ZM9.3983 7.94031C9.39543 7.9468 9.39246 7.95339 9.38955 7.95987C11.2477 9.50074 13.106 11.0417 14.9626 12.5811C15.0723 12.5111 18.4686 9.67318 18.5078 9.61628C15.4684 9.05714 12.4334 8.49875 9.3983 7.94031ZM21.4198 11.8185C21.4209 11.8114 21.422 11.8044 21.4232 11.7973C20.7809 11.1869 20.1386 10.5765 19.4923 9.96221C18.3703 10.897 17.2543 11.8263 16.139 12.7562C16.142 12.7618 16.145 12.7675 16.148 12.7732C17.9052 12.4549 19.6625 12.1368 21.4198 11.8185Z" fill="white"/>
</svg>
