<svg width="30" height="30" viewBox="0 0 30 30" fill="none" xmlns="http://www.w3.org/2000/svg">
<circle cx="15" cy="15" r="15" fill="#FF007A"/>
<path d="M12.8414 9.00361C12.5919 8.96957 12.58 8.95823 12.6988 8.94688C12.9245 8.91284 13.4473 8.95823 13.8156 9.03765C14.6709 9.23053 15.4431 9.72976 16.2629 10.6034L16.4767 10.8417L16.7856 10.7963C18.1043 10.5921 19.4586 10.7509 20.5872 11.2501C20.8961 11.3863 21.3832 11.6586 21.4426 11.7267C21.4663 11.7494 21.502 11.8969 21.5257 12.0444C21.6089 12.5776 21.5733 12.9747 21.3951 13.2811C21.3 13.4513 21.3 13.4966 21.3594 13.6441C21.4069 13.7576 21.5495 13.837 21.6802 13.837C21.9653 13.837 22.2623 13.4059 22.4049 12.8045L22.4643 12.5663L22.5712 12.6797C23.1771 13.3265 23.6523 14.2228 23.7236 14.8582L23.7473 15.0284L23.6404 14.8809C23.4622 14.6199 23.2959 14.4497 23.0701 14.3022C22.6662 14.0413 22.2385 13.9618 21.1099 13.9051C20.0882 13.8484 19.5061 13.769 18.9359 13.5874C17.9617 13.2811 17.4627 12.884 16.3104 11.4203C15.7995 10.7736 15.4788 10.4219 15.158 10.1269C14.4571 9.48014 13.7562 9.13976 12.8414 9.00361Z" fill="white"/>
<path d="M21.6921 10.4446C21.7158 10.0134 21.7752 9.72976 21.9059 9.4688C21.9534 9.36668 22.0009 9.27592 22.0128 9.27592C22.0247 9.27592 22.0009 9.35534 21.9653 9.44611C21.8703 9.69572 21.8584 10.0474 21.9178 10.4446C22.0009 10.9551 22.0366 11.0232 22.6068 11.5792C22.8682 11.8401 23.1771 12.1692 23.2959 12.3053L23.4978 12.5549L23.2959 12.3734C23.0464 12.1465 22.4761 11.7153 22.3455 11.6586C22.2623 11.6132 22.2504 11.6132 22.191 11.6699C22.1435 11.7153 22.1316 11.7834 22.1316 12.1124C22.1197 12.623 22.0485 12.9407 21.8703 13.2697C21.7752 13.4399 21.7633 13.4059 21.8465 13.213C21.9059 13.0655 21.9178 12.9974 21.9178 12.5095C21.9178 11.5224 21.799 11.2842 21.0743 10.8871C20.8961 10.7849 20.5872 10.6374 20.409 10.558C20.2189 10.4786 20.0764 10.4105 20.0882 10.4105C20.112 10.3878 20.8129 10.5807 21.0862 10.6942C21.502 10.853 21.5733 10.8644 21.6208 10.853C21.6564 10.819 21.6802 10.7282 21.6921 10.4446Z" fill="white"/>
<path d="M13.3285 12.1351C12.8295 11.477 12.5087 10.4559 12.58 9.69572L12.6038 9.45745L12.7226 9.48014C12.9364 9.51418 13.3047 9.65034 13.4829 9.75245C13.9581 10.0248 14.172 10.3992 14.3739 11.3296C14.4333 11.6019 14.5165 11.9195 14.5521 12.0217C14.6115 12.1919 14.8372 12.589 15.0273 12.8386C15.158 13.0201 15.0748 13.1109 14.7778 13.0882C14.3264 13.0428 13.7205 12.6457 13.3285 12.1351Z" fill="white"/>
<path d="M21.0862 17.0707C18.7339 16.163 17.9023 15.3801 17.9023 14.0526C17.9023 13.8597 17.9142 13.7009 17.9142 13.7009C17.9261 13.7009 18.0092 13.769 18.1161 13.8484C18.5914 14.2114 19.126 14.3703 20.611 14.5745C21.4782 14.6993 21.9772 14.7901 22.4286 14.9376C23.8661 15.3914 24.7571 16.3218 24.971 17.5812C25.0304 17.9443 24.9947 18.6364 24.8997 18.9995C24.8165 19.2831 24.5789 19.8051 24.5195 19.8164C24.5076 19.8164 24.4839 19.7597 24.4839 19.6689C24.4601 19.1924 24.2106 18.7385 23.7948 18.3868C23.2959 17.9783 22.6543 17.672 21.0862 17.0707Z" fill="white"/>
<path d="M19.423 17.4451C19.3992 17.2749 19.3398 17.0593 19.3042 16.9685L19.2448 16.7984L19.3517 16.9232C19.5061 17.0933 19.6249 17.2976 19.7318 17.5812C19.815 17.7968 19.815 17.8649 19.815 18.2166C19.815 18.557 19.8031 18.6364 19.7318 18.8293C19.613 19.1356 19.4705 19.3512 19.2329 19.5895C18.8052 20.0093 18.2468 20.2362 17.4509 20.3383C17.3083 20.3497 16.9044 20.3837 16.548 20.4064C15.657 20.4518 15.063 20.5425 14.5284 20.7241C14.4571 20.7468 14.3858 20.7695 14.3739 20.7581C14.3502 20.7354 14.7184 20.5312 15.0154 20.395C15.4312 20.2022 15.8589 20.1001 16.7975 19.9412C17.2608 19.8731 17.736 19.7824 17.8548 19.737C19.0309 19.3853 19.613 18.5116 19.423 17.4451Z" fill="white"/>
<path d="M20.504 19.2718C20.1952 18.6251 20.1239 18.0124 20.2902 17.4337C20.314 17.377 20.3377 17.3203 20.3615 17.3203C20.3852 17.3203 20.4565 17.3543 20.5278 17.3997C20.6704 17.4905 20.9674 17.6493 21.7277 18.0464C22.69 18.5456 23.2365 18.9314 23.6166 19.3739C23.9493 19.7597 24.1512 20.2022 24.2463 20.7468C24.3057 21.0531 24.27 21.7906 24.1869 22.097C23.9255 23.0614 23.3315 23.8329 22.4643 24.2754C22.3336 24.3435 22.2267 24.3889 22.2148 24.3889C22.2029 24.3889 22.2504 24.2754 22.3217 24.1392C22.6068 23.5606 22.6425 23.0046 22.4286 22.3806C22.2979 21.9948 22.0247 21.5297 21.4782 20.7468C20.8248 19.8391 20.6704 19.6008 20.504 19.2718Z" fill="white"/>
<path d="M11.6534 22.7437C12.5325 22.0402 13.6136 21.541 14.6115 21.3822C15.0392 21.3141 15.752 21.3368 16.1441 21.4389C16.7737 21.5977 17.3439 21.9381 17.6409 22.3579C17.9261 22.7664 18.0567 23.1181 18.1874 23.901C18.2349 24.2073 18.2943 24.525 18.3062 24.5931C18.4013 25.0015 18.5914 25.3192 18.829 25.4894C19.1972 25.7504 19.8388 25.7617 20.4684 25.5348C20.5753 25.5008 20.6704 25.4667 20.6704 25.4781C20.6941 25.5008 20.3734 25.705 20.1595 25.8071C19.8625 25.9546 19.6249 26 19.3042 26C18.7339 26 18.2468 25.7163 17.8548 25.149C17.7716 25.0356 17.6053 24.7066 17.4627 24.4002C17.0469 23.4812 16.8331 23.2089 16.346 22.9025C15.9183 22.6416 15.3718 22.5848 14.956 22.7777C14.4096 23.0273 14.267 23.6968 14.6472 24.1052C14.8016 24.2754 15.0867 24.4116 15.3243 24.4456C15.7639 24.5023 16.1441 24.1733 16.1441 23.7535C16.1441 23.4812 16.0371 23.3223 15.752 23.1975C15.3718 23.0387 14.956 23.2202 14.9679 23.5719C14.9679 23.7194 15.0392 23.8102 15.1936 23.8783C15.2887 23.9237 15.2887 23.9237 15.2174 23.9123C14.8729 23.8442 14.7897 23.4358 15.063 23.1748C15.3956 22.8571 16.0965 22.9933 16.3341 23.4358C16.4292 23.6173 16.4411 23.9804 16.3579 24.2073C16.1559 24.7066 15.5857 24.9675 15.0036 24.82C14.6115 24.7179 14.4452 24.6158 13.97 24.1506C13.1384 23.3337 12.8176 23.1748 11.6296 23.0046L11.4039 22.9706L11.6534 22.7437Z" fill="white"/>
<path fill-rule="evenodd" clip-rule="evenodd" d="M5.40445 4.48788C8.17251 7.69881 12.4375 12.6911 12.6513 12.9634C12.8295 13.1903 12.7582 13.4059 12.4612 13.5647C12.2949 13.6555 11.9504 13.7463 11.7841 13.7463C11.594 13.7463 11.3683 13.6555 11.2138 13.508C11.1069 13.4059 10.6436 12.7592 9.59812 11.2047C8.80216 10.0134 8.12499 9.0263 8.11311 9.01496C8.06559 8.99226 8.06559 8.99226 9.51496 11.4657C10.4297 13.0201 10.7267 13.5761 10.7267 13.6441C10.7267 13.7916 10.6792 13.8711 10.4891 14.0753C10.1684 14.4157 10.0258 14.8014 9.91889 15.607C9.80008 16.5034 9.47932 17.1387 8.56456 18.2166C8.02995 18.852 7.94679 18.9654 7.81611 19.2264C7.64979 19.5441 7.60227 19.7256 7.57851 20.1341C7.55475 20.5652 7.60227 20.8375 7.73295 21.246C7.85175 21.6091 7.98243 21.8473 8.30319 22.3125C8.57644 22.721 8.74276 23.0273 8.74276 23.1408C8.74276 23.2316 8.76652 23.2316 9.1942 23.1408C10.2159 22.9139 11.0594 22.5281 11.5227 22.0516C11.8078 21.7566 11.8791 21.5977 11.8791 21.1893C11.8791 20.9283 11.8672 20.8716 11.7959 20.7127C11.6771 20.4631 11.4514 20.2589 10.9643 19.9412C10.3228 19.5214 10.0496 19.181 9.97829 18.7272C9.91889 18.3414 9.99017 18.0805 10.3466 17.3657C10.7149 16.6282 10.8099 16.3218 10.8693 15.573C10.9049 15.0964 10.9643 14.9036 11.1069 14.7561C11.2613 14.5972 11.392 14.5405 11.7603 14.4951C12.3662 14.4157 12.7582 14.2682 13.0671 13.9845C13.3404 13.7463 13.4592 13.508 13.471 13.1563L13.4829 12.8953L13.3285 12.7365C12.7701 12.1238 5.03617 4 5.00053 4C4.98865 4 5.17873 4.21558 5.40445 4.48788ZM9.05164 20.622C9.18232 20.4064 9.11104 20.1341 8.8972 19.9979C8.69524 19.8731 8.38635 19.9299 8.38635 20.1001C8.38635 20.1454 8.41011 20.1908 8.48139 20.2135C8.58832 20.2702 8.6002 20.327 8.51704 20.4518C8.43387 20.5766 8.43387 20.69 8.5408 20.7695C8.70712 20.8943 8.93284 20.8262 9.05164 20.622Z" fill="white"/>
<path fill-rule="evenodd" clip-rule="evenodd" d="M13.8631 14.6539C13.578 14.7334 13.3047 15.0284 13.2216 15.3234C13.174 15.5049 13.1978 15.8339 13.281 15.936C13.4116 16.0949 13.5304 16.1403 13.8631 16.1403C14.5165 16.1403 15.0748 15.868 15.1342 15.5389C15.1936 15.2666 14.9442 14.8922 14.5996 14.722C14.4214 14.6313 14.0532 14.5972 13.8631 14.6539ZM14.6234 15.2212C14.7184 15.0851 14.6828 14.9376 14.5046 14.8355C14.1838 14.6426 13.6968 14.8014 13.6968 15.0964C13.6968 15.2439 13.9462 15.4028 14.1838 15.4028C14.3383 15.4028 14.5521 15.312 14.6234 15.2212Z" fill="white"/>
</svg>
