<svg width="30" height="30" viewBox="0 0 30 30" fill="none" xmlns="http://www.w3.org/2000/svg">
<circle cx="15" cy="15" r="15" fill="#186733"/>
<g clip-path="url(#clip0_4069_42439)">
<path d="M17.5036 14.1766C16.7973 13.7863 16.0463 13.4889 15.3028 13.1803C14.8716 13.0019 14.4589 12.7937 14.0946 12.5037C13.3771 11.9312 13.5146 11.0018 14.3548 10.6338C14.5927 10.5297 14.8418 10.4962 15.0946 10.4814C16.0686 10.4293 16.9943 10.6078 17.8754 11.0316C18.3141 11.2435 18.459 11.1765 18.6077 10.7193C18.7639 10.236 18.894 9.74527 19.039 9.25827C19.1356 8.93112 19.0167 8.7155 18.7081 8.57795C18.143 8.32887 17.5631 8.15042 16.9534 8.05376C16.1579 7.93108 16.1579 7.92737 16.1541 7.12808C16.1504 6.00165 16.1504 6.00165 15.0203 6.00165C14.8567 6.00165 14.6931 5.99793 14.5295 6.00165C14.0016 6.01652 13.9124 6.10946 13.8976 6.64108C13.8901 6.879 13.8976 7.11693 13.8938 7.35857C13.8901 8.06492 13.8864 8.05376 13.2098 8.29913C11.5741 8.89394 10.5629 10.0092 10.4551 11.7937C10.3584 13.3736 11.1837 14.4406 12.4811 15.2176C13.2804 15.6971 14.1652 15.9797 15.0128 16.3552C15.3437 16.5001 15.6597 16.6674 15.9348 16.8979C16.7489 17.5708 16.6002 18.6898 15.6337 19.1136C15.1169 19.3404 14.5704 19.3961 14.0091 19.3255C13.1429 19.2177 12.3139 18.9909 11.5332 18.5857C11.0759 18.3478 10.9421 18.411 10.7859 18.9054C10.6521 19.3329 10.5331 19.7642 10.4142 20.1954C10.2543 20.7754 10.3138 20.9129 10.8677 21.1843C11.5741 21.5263 12.3287 21.7011 13.0983 21.8237C13.7005 21.9204 13.7191 21.9464 13.7265 22.571C13.7303 22.8535 13.7303 23.1398 13.734 23.4223C13.7377 23.7792 13.9087 23.9874 14.2767 23.9948C14.6931 24.0022 15.1132 24.0022 15.5296 23.9911C15.8716 23.9837 16.0463 23.7978 16.0463 23.452C16.0463 23.0654 16.0649 22.6751 16.05 22.2884C16.0315 21.8944 16.2025 21.6936 16.5817 21.5895C17.4553 21.3516 18.1988 20.8832 18.7713 20.1843C20.3625 18.2511 19.7565 15.422 17.5036 14.1766Z" fill="white"/>
</g>
<defs>
<clipPath id="clip0_4069_42439">
<rect width="18" height="18" fill="white" transform="translate(6 6)"/>
</clipPath>
</defs>
</svg>
