<svg width="30" height="31" viewBox="0 0 30 31" fill="none" xmlns="http://www.w3.org/2000/svg">
<g clip-path="url(#clip0_1782_30640)">
<path d="M15 30.5C23.3125 30.5 30 23.8125 30 15.5C30 7.18745 23.3125 0.5 15 0.5C6.68745 0.5 0 7.18745 0 15.5C0 23.8125 6.68745 30.5 15 30.5Z" fill="#2775CA"/>
<path d="M19.5638 18.1077C19.5638 15.6874 18.1117 14.8576 15.2073 14.5119C13.1328 14.2353 12.7179 13.6821 12.7179 12.7139C12.7179 11.7456 13.4094 11.1235 14.7924 11.1235C16.0371 11.1235 16.7287 11.5384 17.0744 12.5756C17.1436 12.7831 17.3511 12.9213 17.5585 12.9213H18.6648C18.9415 12.9213 19.1489 12.7139 19.1489 12.4374V12.3682C18.8723 10.8468 17.6275 9.67127 16.0371 9.53302V7.87339C16.0371 7.59673 15.8297 7.38928 15.484 7.32007H14.4467C14.17 7.32007 13.9626 7.52752 13.8934 7.87339V9.46382C11.8188 9.74048 10.5051 11.1235 10.5051 12.8523C10.5051 15.1343 11.888 16.0331 14.7924 16.379C16.7287 16.7247 17.3511 17.1396 17.3511 18.2461C17.3511 19.3526 16.3828 20.1132 15.0691 20.1132C13.271 20.1132 12.6486 19.3524 12.4412 18.3151C12.3721 18.0386 12.1647 17.9002 11.9572 17.9002H10.7816C10.5051 17.9002 10.2976 18.1077 10.2976 18.3843V18.4536C10.5741 20.1822 11.6806 21.427 13.9626 21.7728V23.4325C13.9626 23.709 14.17 23.9164 14.5157 23.9856H15.553C15.8297 23.9856 16.0371 23.7782 16.1063 23.4325V21.7728C18.1809 21.427 19.5638 19.9748 19.5638 18.1077Z" fill="white"/>
<path d="M11.4733 25.3686C6.07953 23.4325 3.31342 17.4163 5.31892 12.0916C6.35619 9.18722 8.63819 6.97443 11.4733 5.93716C11.75 5.79891 11.8882 5.59145 11.8882 5.24559V4.27752C11.8882 4.00086 11.75 3.79341 11.4733 3.72437C11.4041 3.72437 11.2659 3.72436 11.1967 3.79341C4.62735 5.86795 1.03142 12.8524 3.10596 19.4217C4.35069 23.2941 7.32425 26.2677 11.1967 27.5124C11.4733 27.6506 11.75 27.5124 11.819 27.2357C11.8882 27.1667 11.8882 27.0975 11.8882 26.9592V25.991C11.8882 25.7836 11.6808 25.5071 11.4733 25.3686ZM18.8034 3.79341C18.5268 3.65516 18.2501 3.79341 18.1811 4.07007C18.1119 4.13927 18.1119 4.20831 18.1119 4.34673V5.31479C18.1119 5.59145 18.3193 5.86795 18.5268 6.00636C23.9206 7.94249 26.6867 13.9587 24.6812 19.2834C23.6439 22.1878 21.3619 24.4006 18.5268 25.4379C18.2501 25.5761 18.1119 25.7836 18.1119 26.1294V27.0975C18.1119 27.3742 18.2501 27.5816 18.5268 27.6506C18.596 27.6506 18.7342 27.6506 18.8034 27.5816C25.3728 25.5071 28.9687 18.5227 26.8942 11.9533C25.6494 8.0117 22.6067 5.03813 18.8034 3.79341Z" fill="white"/>
</g>
<defs>
<clipPath id="clip0_1782_30640">
<rect width="30" height="30" fill="white" transform="translate(0 0.5)"/>
</clipPath>
</defs>
</svg>
