<svg width="30" height="30" viewBox="0 0 30 30" fill="none" xmlns="http://www.w3.org/2000/svg">
<circle cx="15" cy="15" r="15" fill="#50AF95"/>
<path fill-rule="evenodd" clip-rule="evenodd" d="M16.6277 15.5257C16.5368 15.5322 16.0671 15.5588 15.0193 15.5588C14.1859 15.5588 13.5943 15.5351 13.3867 15.5257C10.1661 15.3911 7.76216 14.8586 7.76216 14.2209C7.76216 13.5833 10.1661 13.0515 13.3867 12.9147V14.9953C13.5973 15.0097 14.2003 15.0435 15.0337 15.0435C16.0338 15.0435 16.5345 15.004 16.6247 14.996V12.9162C19.8385 13.0522 22.2371 13.5847 22.2371 14.2209C22.2371 14.8571 19.8392 15.3897 16.6247 15.525L16.6277 15.5257ZM16.6277 12.701V10.8392H21.1128V8H8.90161V10.8392H13.3859V12.7003C9.74104 12.8593 7 13.5452 7 14.367C7 15.1889 9.74104 15.8741 13.3859 16.0338V22H16.627V16.0317C20.2635 15.8726 23 15.1875 23 14.3663C23 13.5452 20.2658 12.86 16.627 12.7003L16.6277 12.701Z" fill="white"/>
</svg>
