<svg width="30" height="30" viewBox="0 0 30 30" fill="none" xmlns="http://www.w3.org/2000/svg">
<g clip-path="url(#clip0_1436_29580)">
<path d="M29.9963 14.9985C29.9963 23.2817 23.282 29.997 14.9983 29.997C6.71454 29.997 0.000244141 23.2817 0.000244141 14.9985C0.000244141 6.71534 6.7147 0 14.9983 0C23.2818 0 29.9963 6.7147 29.9963 14.9985Z" fill="white"/>
<path d="M14.9985 0C6.71766 0 -0.00857632 6.72484 0.0019655 14.998C0.00404192 16.6533 0.267987 18.2455 0.763372 19.7348H5.25067V7.11768L14.9985 16.8654L24.7458 7.11768V19.735H29.2341C29.7302 18.2458 29.9928 16.6536 29.9958 14.9983C30.0099 6.71646 23.2802 0.00199654 14.9985 0.00199654V0Z" fill="#F26822"/>
<path d="M12.7565 19.1062L8.50251 14.8521V22.7913H5.25015L2.18115 22.7919C4.81363 27.1107 9.57114 29.9998 14.9982 29.9998C20.4253 29.9998 25.183 27.1101 27.816 22.7912H21.4929V14.8521L17.2387 19.1062L14.9977 21.3472L12.7567 19.1062H12.7565Z" fill="#4D4D4D"/>
</g>
<defs>
<clipPath id="clip0_1436_29580">
<rect width="29.9968" height="30" fill="white"/>
</clipPath>
</defs>
</svg>
