<svg width="30" height="31" viewBox="0 0 30 31" fill="none" xmlns="http://www.w3.org/2000/svg">
<g clip-path="url(#clip0_1782_30374)">
<path d="M15 30.5C23.2843 30.5 30 23.7843 30 15.5C30 7.21573 23.2843 0.5 15 0.5C6.71573 0.5 0 7.21573 0 15.5C0 23.7843 6.71573 30.5 15 30.5Z" fill="#396DE9"/>
<path d="M23 22.4982C22.2197 22.4982 21.4901 22.502 20.7608 22.4921C20.692 22.4921 20.6124 22.4188 20.5576 22.3609C19.4039 21.139 18.2519 19.9155 17.1017 18.6904C15.8915 17.4059 14.1197 17.4035 12.9006 18.6871C11.7485 19.9016 10.5989 21.1168 9.45177 22.3329C9.40494 22.388 9.34593 22.4315 9.27937 22.4601C9.21282 22.4886 9.14053 22.5013 9.0682 22.4973C8.39238 22.4893 7.71656 22.494 7 22.494C7.05761 22.4183 7.08852 22.3698 7.12739 22.3282C8.68463 20.6849 10.2348 19.0351 11.8019 17.4012C13.5975 15.529 16.3879 15.5272 18.1831 17.4012C19.7605 19.0463 21.3182 20.7111 22.8843 22.367C22.9124 22.3936 22.9354 22.4235 23 22.4982Z" fill="white"/>
<path d="M22.964 8.50663C22.8839 8.60005 22.8384 8.6603 22.7874 8.71449C21.2575 10.3412 19.7275 11.9675 18.1976 13.5934C17.231 14.6154 16.0386 15.0979 14.6307 14.9895C13.5034 14.9027 12.5578 14.4178 11.7846 13.5976C10.4189 12.1483 9.05368 10.6984 7.68893 9.24793L7.00936 8.52437C7.11427 8.51597 7.1789 8.5071 7.24354 8.50663C7.86643 8.50663 8.4898 8.51083 9.11317 8.50289C9.1816 8.49907 9.24999 8.51127 9.31285 8.53853C9.37572 8.56578 9.43131 8.60732 9.47519 8.65984C10.6114 9.88738 11.756 11.1065 12.8908 12.3355C14.0617 13.6032 15.9084 13.6097 17.0773 12.3471C18.2014 11.1327 19.3366 9.92288 20.4611 8.70608C20.5918 8.56595 20.7201 8.49635 20.9206 8.50149C21.5126 8.51643 22.1045 8.50663 22.6965 8.50663H22.964Z" fill="white"/>
</g>
<defs>
<clipPath id="clip0_1782_30374">
<rect y="0.5" width="30" height="30" rx="15" fill="white"/>
</clipPath>
</defs>
</svg>
